<svg xmlns="http://www.w3.org/2000/svg" xmlns:xlink="http://www.w3.org/1999/xlink" width="240" height="9356" viewBox="0 0 240 9356"><svg version="1" width="240" height="240" viewBox="-20 -20 240 240" id="flag-ARG" y="0"><g transform="translate(-197.53 -320.833)"><path fill="#fff" d="M339.63 510.25l-42.104-42.09-42.09 42.09v-47.324h-47.332l42.1-42.092-42.1-42.094h47.332v-47.327l42.09 42.097 42.105-42.097v47.327h47.323l-42.1 42.094 42.1 42.092H339.63z"/><path fill="#FBAA19" d="M386.953 410.253l10.577 10.58-10.577 10.582-10.584-10.58z"/><path fill="#FBAA19" d="M208.104 410.253l10.59 10.58-10.59 10.582-10.574-10.58z"/><path fill="#FBAA19" d="M286.948 331.413l10.578-10.58 10.588 10.58-10.588 10.582z"/><path fill="#FBAA19" d="M286.948 510.25l10.578-10.58 10.588 10.58-10.588 10.583z"/><g><g><radialGradient id="aaa" cx="430.261" cy="157.334" r="171.781" gradientTransform="matrix(1 0 0 -1 -95.13 501.154)" gradientUnits="userSpaceOnUse"><stop offset="0" stop-color="#fff"/><stop offset=".25" stop-color="#FAF9F8"/><stop offset=".439" stop-color="#EFECEA"/><stop offset=".608" stop-color="#DFD9D7"/><stop offset=".766" stop-color="#CBC2BF"/><stop offset=".914" stop-color="#B2A6A2"/><stop offset="1" stop-color="#A29490"/></radialGradient><path fill="url(#aaa)" d="M334.06 498.41l-36.534-36.52-36.517 36.52v-41.056h-41.063l36.522-36.52-36.523-36.52h41.062v-41.065l36.516 36.528 36.535-36.53v41.065h41.05l-36.515 36.52 36.514 36.52h-41.05z"/></g><defs><path id="aab" d="M334.06 498.41l-36.534-36.52-36.517 36.52v-41.056h-41.063l36.522-36.52-36.523-36.52h41.062v-41.065l36.516 36.528 36.535-36.53v41.065h41.05l-36.515 36.52 36.514 36.52h-41.05z"/></defs><clipPath id="aac"><use xlink:href="#aab" overflow="visible"/></clipPath><g clip-path="url(#aac)"><path fill="#70BFEA" d="M218.693 443.813h159.943v58.743H218.693z"/><path fill="#70BFEA" d="M218.693 337.76h159.943v59.81H218.693z"/><path fill="#FBAA19" d="M301.676 429.255l1.42 9.52-4.23-8.648-1.594 9.488-1.334-9.528-4.46 8.527 1.676-9.47-6.872 6.738 4.516-8.5-8.615 4.285 6.918-6.69-9.51 1.415 8.645-4.223-9.49-1.592 9.526-1.34-8.53-4.455 9.48 1.668-6.737-6.865 8.493 4.512-4.282-8.61 6.687 6.92-1.415-9.518 4.23 8.648 1.59-9.49 1.344 9.527 4.444-8.523-1.666 9.477 6.867-6.744-4.514 8.5 8.617-4.29-6.915 6.684 9.513-1.406-8.65 4.215 9.493 1.595-9.525 1.34 8.522 4.45-9.47-1.664 6.74 6.87-8.503-4.516 4.288 8.614z"/></g></g></g></svg><svg version="1" width="240" height="240" viewBox="-20 -20 240 240" id="flag-BOL" y="240"><g transform="translate(-197.53 -320.833)"><path fill="#fff" d="M339.625 510.25l-42.097-42.095-42.09 42.095v-47.323h-47.332l42.1-42.095-42.1-42.094h47.333v-47.322l42.088 42.094 42.097-42.094v47.322h47.328l-42.103 42.094 42.103 42.095h-47.328z"/><path fill="#FFD400" d="M386.953 410.25l10.577 10.582-10.577 10.58-10.587-10.58z"/><path fill="#FFD400" d="M208.106 410.25l10.59 10.582-10.59 10.58-10.576-10.58z"/><path fill="#FFD400" d="M286.952 331.416l10.576-10.583 10.584 10.583-10.584 10.58z"/><path fill="#FFD400" d="M286.952 510.25l10.576-10.576 10.584 10.576-10.584 10.583z"/><g><g><radialGradient id="aba" cx="430.416" cy="157.305" r="171.972" gradientTransform="matrix(.999 0 0 -.999 -94.807 500.955)" gradientUnits="userSpaceOnUse"><stop offset="0" stop-color="#fff"/><stop offset=".25" stop-color="#FAF9F8"/><stop offset=".439" stop-color="#EFECEA"/><stop offset=".608" stop-color="#DFD9D7"/><stop offset=".766" stop-color="#CBC2BF"/><stop offset=".914" stop-color="#B2A6A2"/><stop offset="1" stop-color="#A29490"/></radialGradient><path fill="url(#aba)" d="M334.054 498.416l-36.526-36.523-36.517 36.523V457.36h-41.065l36.524-36.528-36.525-36.524h41.066V343.25l36.518 36.522 36.526-36.52v41.056h41.06l-36.53 36.524 36.53 36.527h-41.06z"/></g><defs><path id="abb" d="M334.054 498.416l-36.526-36.523-36.517 36.523V457.36h-41.065l36.524-36.528-36.525-36.524h41.066V343.25l36.518 36.522 36.526-36.52v41.056h41.06l-36.53 36.524 36.53 36.527h-41.06z"/></defs><clipPath id="abc"><use xlink:href="#abb" overflow="visible"/></clipPath><g clip-path="url(#abc)"><path fill="#FFD400" d="M218.695 395.487H378.64v50.37H218.695z"/><path fill="#00692B" d="M218.695 442.867H378.64v56.397H218.695z"/><path fill="#ED1C24" d="M218.695 341.056H378.64v57.416H218.695z"/></g></g></g></svg><svg version="1" width="240" height="240" viewBox="-20 -20 240 240" id="flag-BRA" y="480"><g transform="translate(-197.532 -320.837)"><path fill="#fff" d="M339.624 510.257l-42.1-42.097-42.095 42.097v-47.33H208.1l42.1-42.094-42.1-42.1h47.33v-47.317l42.093 42.09 42.1-42.09v47.318h47.33l-42.098 42.1 42.097 42.093h-47.328v47.327z"/><g><g><radialGradient id="aca" cx="525.758" cy="984.78" r="171.973" gradientTransform="matrix(.999 0 0 .999 -190.062 -639.873)" gradientUnits="userSpaceOnUse"><stop offset="0" stop-color="#fff"/><stop offset=".25" stop-color="#FAF9F8"/><stop offset=".439" stop-color="#EFECEA"/><stop offset=".608" stop-color="#DFD9D7"/><stop offset=".766" stop-color="#CBC2BF"/><stop offset=".914" stop-color="#B2A6A2"/><stop offset="1" stop-color="#A29490"/></radialGradient><path fill="url(#aca)" d="M334.05 498.415l-36.527-36.524-36.518 36.525v-41.06h-41.063l36.52-36.522-36.52-36.523h41.063v-41.065l36.518 36.53 36.528-36.53v41.065h41.057l-36.517 36.523 36.517 36.523H334.05z"/></g><defs><path id="acb" d="M334.05 498.415l-36.527-36.524-36.518 36.525v-41.06h-41.063l36.52-36.522-36.52-36.523h41.063v-41.065l36.518 36.53 36.528-36.53v41.065h41.057l-36.517 36.523 36.517 36.523H334.05z"/></defs><clipPath id="acc"><use xlink:href="#acb" overflow="visible"/></clipPath><g clip-path="url(#acc)"><path fill="#00692B" d="M211.017 334.318h173.028v173.034H211.017z"/><g><path fill="#FFF200" d="M297.523 389.63l41.962 31.203-41.962 31.202-41.955-31.202z"/><path fill="#123F8F" d="M317.08 420.833c0 10.8-8.758 19.562-19.56 19.562-10.797 0-19.554-8.763-19.554-19.562 0-10.805 8.758-19.56 19.555-19.56 10.803 0 19.56 8.754 19.56 19.56z"/></g></g></g><path fill="#FFF200" d="M386.952 410.25l10.58 10.583-10.58 10.584-10.582-10.584z"/><path fill="#FFF200" d="M208.1 410.25l10.587 10.583-10.588 10.584-10.568-10.584z"/><path fill="#FFF200" d="M286.946 331.416l10.577-10.58 10.587 10.58-10.587 10.574z"/><path fill="#FFF200" d="M286.946 510.257l10.577-10.584 10.587 10.584-10.587 10.58z"/></g></svg><svg width="240" height="240" viewBox="-20 -20 240 240" id="flag-CHI" y="720"><path fill="#fff" d="M189.425 142.095h-47.332v47.323l-42.1-42.1-42.102 42.1v-47.323H10.568l42.102-42.1-42.103-42.092H57.89v-47.32l42.102 42.09 42.1-42.09v47.32h47.333l-42.108 42.092z"/><radialGradient id="ada" cx="129.159" cy="-1.756" r="171.789" gradientTransform="translate(8.445 24.748)" gradientUnits="userSpaceOnUse"><stop offset="0" stop-color="#fff"/><stop offset=".25" stop-color="#FAF9F8"/><stop offset=".439" stop-color="#EFECEA"/><stop offset=".608" stop-color="#DFD9D7"/><stop offset=".766" stop-color="#CBC2BF"/><stop offset=".914" stop-color="#B2A6A2"/><stop offset="1" stop-color="#A29490"/></radialGradient><path fill="url(#ada)" d="M177.583 136.523h-41.06v41.053l-36.53-36.525-36.52 36.526v-41.053h-41.06l36.518-36.528-36.516-36.52h41.06V22.416l36.518 36.52 36.53-36.52v41.057h41.06l-36.52 36.52z"/><defs><path id="adb" d="M177.583 136.523h-41.06v41.053l-36.53-36.525-36.52 36.526v-41.053h-41.06l36.518-36.528-36.516-36.52h41.06V22.416l36.518 36.52 36.53-36.52v41.057h41.06l-36.52 36.52z"/></defs><clipPath id="adc"><use xlink:href="#adb" overflow="visible"/></clipPath><g clip-path="url(#adc)"><path fill="#ED1C24" d="M-18.25 99.92h231.79v109.41H-18.25z"/><path fill="#00458C" d="M-7.42 10.584H99.992v89.5H-7.42z"/><path fill="#fff" d="M86.686 73.898l-7.348 5.338 2.81 8.64-7.354-5.34-7.35 5.34 2.808-8.64-7.346-5.338h9.08l2.808-8.638 2.81 8.638z"/></g><path fill="#ED1C24" d="M200 99.995l-10.575 10.583-10.584-10.583 10.585-10.58zM21.155 99.995l-10.588 10.583L0 99.995l10.567-10.58zM99.992 0l10.587 10.59L99.99 21.164 89.405 10.59zM99.992 178.838l10.587 10.58L99.99 200l-10.587-10.582z"/></svg><svg version="1" width="240" height="240" viewBox="-20 -20 240 240" id="flag-COL" y="960"><g transform="translate(-197.53 -320.831)"><path fill="#fff" d="M339.625 510.248l-42.1-42.09-42.088 42.09v-47.323h-47.335l42.105-42.093-42.105-42.094h47.335v-47.326l42.087 42.095 42.1-42.095v47.326h47.33l-42.1 42.094 42.1 42.093h-47.33z"/><g><g><radialGradient id="aea" cx="430.412" cy="157.303" r="171.966" gradientTransform="matrix(.999 0 0 -.999 -94.807 500.954)" gradientUnits="userSpaceOnUse"><stop offset="0" stop-color="#fff"/><stop offset=".25" stop-color="#FAF9F8"/><stop offset=".439" stop-color="#EFECEA"/><stop offset=".608" stop-color="#DFD9D7"/><stop offset=".766" stop-color="#CBC2BF"/><stop offset=".914" stop-color="#B2A6A2"/><stop offset="1" stop-color="#A29490"/></radialGradient><path fill="url(#aea)" d="M334.054 498.41l-36.53-36.516-36.515 36.516v-41.05h-41.06l36.52-36.528-36.52-36.527h41.06v-41.05l36.514 36.525 36.53-36.525v41.05h41.053l-36.523 36.527 36.523 36.528h-41.053z"/></g><defs><path id="aeb" d="M334.054 498.41l-36.53-36.516-36.515 36.516v-41.05h-41.06l36.52-36.528-36.52-36.527h41.06v-41.05l36.514 36.525 36.53-36.525v41.05h41.053l-36.523 36.527 36.523 36.528h-41.053z"/></defs><clipPath id="aec"><use xlink:href="#aeb" overflow="visible"/></clipPath><g clip-path="url(#aec)"><path fill="#00458C" d="M181.467 420.832H441.82v38.92H181.468z"/><path fill="#FFCB05" d="M181.467 336.463H441.82v84.363H181.468z"/><path fill="#ED1C24" d="M181.467 457.3H441.82v41.11H181.468z"/></g></g><path fill="#FFCB05" d="M386.953 410.256l10.577 10.576-10.577 10.585-10.587-10.585z"/><path fill="#FFCB05" d="M208.102 410.256l10.583 10.576-10.583 10.585-10.572-10.585z"/><path fill="#FFCB05" d="M286.95 331.42l10.574-10.59 10.58 10.59-10.58 10.575z"/><path fill="#FFCB05" d="M286.95 510.248l10.574-10.574 10.58 10.574-10.58 10.583z"/></g></svg><svg width="240" height="240" viewBox="-20 -20 240 240" id="flag-ECU" y="1200"><path fill="#fff" d="M189.423 142.098h-47.328v47.32l-42.1-42.086-42.09 42.086v-47.32H10.573l42.105-42.093-42.105-42.098h47.334v-47.32L99.994 52.68l42.1-42.092v47.32h47.33l-42.1 42.097z"/><defs><path id="afa" d="M177.577 136.533h-41.053v41.05l-36.53-36.52-36.515 36.52v-41.05H22.42l36.52-36.528L22.42 63.48h41.06V22.426L99.993 58.95l36.53-36.523V63.48h41.053l-36.523 36.525z"/></defs><clipPath id="afb"><use xlink:href="#afa" overflow="visible"/></clipPath><path clip-path="url(#afb)" fill="#FFCB05" d="M-16.063 15.638H244.29v84.36H-16.063z"/><defs><path id="afc" d="M177.577 136.533h-41.053v41.05l-36.53-36.52-36.515 36.52v-41.05H22.42l36.52-36.528L22.42 63.48h41.06V22.426L99.993 58.95l36.53-36.523V63.48h41.053l-36.523 36.525z"/></defs><clipPath id="afd"><use xlink:href="#afc" overflow="visible"/></clipPath><path clip-path="url(#afd)" fill="#00458C" d="M-16.063 100.005H244.29v38.915H-16.063z"/><defs><path id="afe" d="M177.577 136.533h-41.053v41.05l-36.53-36.52-36.515 36.52v-41.05H22.42l36.52-36.528L22.42 63.48h41.06V22.426L99.993 58.95l36.53-36.523V63.48h41.053l-36.523 36.525z"/></defs><clipPath id="aff"><use xlink:href="#afe" overflow="visible"/></clipPath><path clip-path="url(#aff)" fill="#ED1C24" d="M103.97 136.545l-3.796-21.095c8.987 0 12.64-6.333 12.64-15.418V97.3l-2.686 2.732h-20.28L87.16 97.3v2.732c0 9.085 3.65 15.418 12.642 15.418l-3.787 21.095H-16.063v41.115H244.29v-41.115H103.97z"/><path fill="#FFCB05" d="M200 100.005l-10.577 10.583-10.587-10.583 10.587-10.576zM21.154 100.005l-10.582 10.583L0 100.005 10.572 89.43zM99.994 0l10.58 10.588-10.58 10.576L89.42 10.588zM99.994 178.848l10.58 10.57L99.995 200 89.42 189.418z"/><path fill="#00458C" d="M82.726 104.827l1.427-10.46 3.008 2.93.767 5.657zM111.757 104.148l1.057-6.85 3.014-2.93h1.485l-.417 9.16z"/><g fill="#FFCB05"><path d="M79.68 89.9v22.852c0 3.997 3.747 7.83 8.52 7.83h5.38l-3.1 4.45h4.615l2.106-7.692h-9c-2.726 0-4.048-1.983-4.048-4.588V94.366L79.68 89.9zM120.298 89.9v22.852c0 3.997-3.75 7.83-8.52 7.83h-5.38l3.105 4.45h-4.668l-2.113-7.692h9.054c2.73 0 4.052-1.983 4.052-4.588V94.366l4.47-4.465z"/></g><path fill="#403120" d="M110.137 71.745c-4.533 0-7.676.825-10.157 3.576-2.872-2.785-5.602-3.575-10.14-3.575-4.796 0-8.784 1.838-11.332 4.87 4.108-.615 7.933-.152 11.842 1.498 3.328 1.404 5.344 3.897 4.64 7.585-.274 1.435-1.805 4.203-1.805 4.203l6.793-1.655 6.817 1.656s-1.532-2.767-1.808-4.202c-.705-3.686 1.318-6.18 4.637-7.585 3.914-1.65 7.733-2.113 11.858-1.498-2.55-3.032-6.546-4.87-11.345-4.87z"/><path fill="#00692B" d="M110.13 100.032c0 7.544-4.534 13.656-10.14 13.656-5.598 0-10.14-6.11-10.14-13.656 0-7.538 4.543-13.648 10.14-13.648 5.605 0 10.14 6.11 10.14 13.648z"/><path fill="#fff" d="M102.076 78.312c0 1.15-.934 2.083-2.086 2.083-1.147 0-2.083-.933-2.083-2.083 0-1.147.936-2.083 2.083-2.083 1.153 0 2.086.935 2.086 2.082z"/><path fill="#FFCB05" d="M95.052 78.312l4.307-.83.16 1.304z"/></svg><svg version="1" width="240" height="240" viewBox="-20 -20 240 240" id="flag-JAM" y="1440"><g transform="translate(-197.531 -320.834)"><path fill="#fff" d="M339.63 510.25l-42.106-42.098-42.088 42.098V462.926h-47.334l42.102-42.093-42.102-42.095h47.334v-47.323l42.088 42.095 42.106-42.095v47.323h47.324l-42.104 42.095 42.104 42.093H339.63v47.322z"/><path fill="#FFD400" d="M386.954 410.25l10.577 10.583-10.576 10.58-10.585-10.58z"/><path fill="#FFD400" d="M208.102 410.25l10.592 10.583-10.592 10.58-10.57-10.58z"/><path fill="#FFD400" d="M286.948 331.415l10.576-10.58 10.585 10.58-10.586 10.58z"/><path fill="#FFD400" d="M286.948 510.25l10.576-10.576 10.585 10.576-10.586 10.584z"/><g><g><radialGradient id="aga" cx="430.411" cy="157.305" r="171.971" gradientTransform="matrix(.999 0 0 -.999 -94.814 500.956)" gradientUnits="userSpaceOnUse"><stop offset="0" stop-color="#fff"/><stop offset=".25" stop-color="#FAF9F8"/><stop offset=".439" stop-color="#EFECEA"/><stop offset=".608" stop-color="#DFD9D7"/><stop offset=".766" stop-color="#CBC2BF"/><stop offset=".914" stop-color="#B2A6A2"/><stop offset="1" stop-color="#A29490"/></radialGradient><path fill="url(#aga)" d="M334.056 498.417l-36.532-36.525-36.517 36.525v-41.06h-41.063l36.52-36.524-36.52-36.525h41.063v-41.056l36.517 36.523 36.532-36.523v41.056h41.053l-36.522 36.525 36.52 36.523h-41.052z"/></g><defs><path id="agb" d="M334.056 498.417l-36.532-36.525-36.517 36.525v-41.06h-41.063l36.52-36.524-36.52-36.525h41.063v-41.056l36.517 36.523 36.532-36.523v41.056h41.053l-36.522 36.525 36.52 36.523h-41.052z"/></defs><clipPath id="agc"><use xlink:href="#agb" overflow="visible"/></clipPath><g clip-path="url(#agc)"><path fill="#FFD400" d="M334.057 373.533l-36.498 36.5-36.554-36.55v10.825h-10.78l36.528 36.527-36.527 36.523h10.78v10.832l36.552-36.55 36.497 36.5v-10.782h10.827l-36.52-36.52 36.53-36.53h-10.837z"/><path d="M219.942 384.308l36.523 36.527-36.523 36.522h30.285l36.526-36.522-36.528-36.527h-30.283zm155.165 0h-30.214l-36.53 36.53 36.52 36.52h30.225l-36.52-36.522 36.52-36.528z"/><path fill="#00692B" d="M261.006 468.19v30.23l36.518-36.524 36.534 36.523v-30.28l-36.5-36.5-36.552 36.55zm36.518-88.414l-36.518-36.525v30.232l36.553 36.55 36.498-36.498V343.25l-36.534 36.526z"/></g></g></g></svg><svg version="1" width="240" height="240" viewBox="-20 -20 240 240" id="flag-MEX" y="1680"><path fill="#fff" d="M142.092 189.417L99.99 147.323l-42.094 42.094V142.09H10.578l42.096-42.093-42.096-42.093h47.318v-47.32L99.99 52.675l42.102-42.093v47.32h47.33l-42.105 42.094 42.104 42.093h-47.328z"/><path fill="#ED1C24" d="M189.42 89.416L200 99.996l-10.58 10.582-10.585-10.58z"/><path fill="#ED1C24" d="M10.578 89.416l10.586 10.58-10.586 10.582L0 99.998z"/><path fill="#ED1C24" d="M89.412 10.583L99.99 0l10.583 10.583L99.99 21.16z"/><path fill="#ED1C24" d="M89.412 189.417L99.99 178.84l10.583 10.577L99.99 200z"/><g transform="translate(-197.528 -320.835)"><g><radialGradient id="aha" cx="430.409" cy="157.304" r="171.97" gradientTransform="matrix(.999 0 0 -.999 -94.8 500.957)" gradientUnits="userSpaceOnUse"><stop offset="0" stop-color="#fff"/><stop offset=".25" stop-color="#FAF9F8"/><stop offset=".439" stop-color="#EFECEA"/><stop offset=".608" stop-color="#DFD9D7"/><stop offset=".766" stop-color="#CBC2BF"/><stop offset=".914" stop-color="#B2A6A2"/><stop offset="1" stop-color="#A29490"/></radialGradient><path fill="url(#aha)" d="M334.047 498.417l-36.53-36.528-36.514 36.527v-41.064h-41.058l36.516-36.52-36.515-36.523h41.058v-41.06l36.515 36.524 36.53-36.523v41.06H375.1l-36.52 36.522 36.52 36.52h-41.055z"/></g><defs><path id="ahb" d="M334.047 498.417l-36.53-36.528-36.514 36.527v-41.064h-41.058l36.516-36.52-36.515-36.523h41.058v-41.06l36.515 36.524 36.53-36.523v41.06H375.1l-36.52 36.522 36.52 36.52h-41.055z"/></defs><clipPath id="ahc"><use xlink:href="#ahb" overflow="visible"/></clipPath><g clip-path="url(#ahc)"><path fill="#00692B" d="M215.903 339.734h59.806v159.942h-59.807z"/><path fill="#ED1C24" d="M319.336 339.734h59.813v159.942h-59.814z"/></g><defs><path id="ahd" d="M334.047 498.417l-36.53-36.528-36.514 36.527v-41.064h-41.058l36.516-36.52-36.515-36.523h41.058v-41.06l36.515 36.524 36.53-36.523v41.06H375.1l-36.52 36.522 36.52 36.52h-41.055z"/></defs><clipPath id="ahe"><use xlink:href="#ahd" overflow="visible"/></clipPath><g clip-path="url(#ahe)"><path fill="#00692B" d="M297.528 437.817c-9.612 0-17.472-7.654-17.803-17.188h3.02c.33 7.867 6.834 14.17 14.782 14.17s14.453-6.303 14.783-14.17h3.02c-.33 9.533-8.19 17.187-17.802 17.187z"/><path fill="#39B54A" d="M286.212 406.986c-1.228.542-1.12 1.257-1.073 2.146.09 1.716.627 2.24 2.16 2.176.66-.028 1.56-.108 1.83.773.27.882-.465.913-1.384 1.525-.918.614-3.61 3.616-.594 4.812 1.36.583 2.945.308 2.87.628-.313 1.027-2.057 2.912-2.564 1.77-.507-1.14-1.18-2.46-1.886-2.734-.706-.275-.52-1.012-.246-1.654.275-.644-.46-2.42-2.053-2.697-1.594-.276-1.317.734-.337 1.255.98.52 1.333.664.645 2.023-.484.955.36 1.71 1.104 2.207.46.306.797 1.256 1.073 2.175.276.918 1.083 1.378 2.564.75 1.482-.63 3.224-1.288 3.38-2.275.156-.99-.12-2.092-1.99-2.336-1.87-.247-2.88-.95-1.563-1.963 1.318-1.01 1.747-1.348 2.33-2.114.582-.767.826-1.616.397-2.417-.428-.802-3.306-1.14-3.936-1.108-.63.03-.292-.55.367-.92.658-.367 1.15-.735.78-.705-.368.03-1.068.307-1.147.368-.078.063-.845.216-.14-.397.706-.613 1.257-1.87.675-1.655-.586.216-.962.236-1.26.368z"/><path fill="#6F3D23" d="M301.334 415.883c.512 1.603 2.754 3.708 2.754 3.708s1.35-1.304 1.354-2.484c.702.854 1.006 4.017 1.006 4.017s1.542-.545 1.852-1.874c.533.718 1.113 2.082 1.805 4.52 1.326-3.365 1.282-8.315-.547-11.896-1.998-3.91-6.206-6.717-10.848-7.827-4.04-.968-4.758 1.913-2.242 2.694 1.38.43 1.12 3.224 1.12 3.224s-.047.135-1.034-1.234c-1.03-1.428-2.123-2.29-4.39-2.342-1.82-.04-2.17 1.16-3.173 2.184-.938.96-2.312 2.077-.928 3.415.17.165.754.254 1.085.077-.294-.39-.44-1.13 0-1.51.682-.587 1.598.12 1.74.465l.426.115c.425.116.115-.31 1.006-.735.89-.425.396 1.5-.31 2.555-1.494 2.22-.278 5.712 2.24 7.69l-1.813.435s-.542-.232-.31-.735c.23-.502-.156-1.353-.31-.772-.155.58-.853 1.43-.853 1.43l-.386-.658s-.58-.23-.696-.496c-.115-.264.155-.82.155-.82s-.386 0-1.238.23c-.853.233-1.007.542-1.394.892-.388.348.62 1.314.93 1.973h7.815s3.503 2.4 3.523 2.457c.02.06.134.6-.253.696-.388.097-.986.06-2.36.23-.915.117-1.057.626-1.05.955h7.216c-.047-.455-.215-.762-.438-.762-.23 0-.773.1-1.142-.288-.367-.388-.27-1.16-.33-1.605.568.8 1.2.95 1.2.95h7.19l-8.37-6.27c-.002.003-.002-1.705-.002-2.604z"/><path fill="#39B54A" d="M306.634 425.994c-1.952 2.957-5.306 4.912-9.106 4.912-4.734 0-8.77-3.033-10.274-7.258h-2.764c1.596 5.7 6.834 9.895 13.038 9.895 5.316 0 9.925-3.08 12.14-7.55h-3.034z"/></g></g></svg><svg version="1" width="240" height="240" viewBox="-20 -20 240 240" id="flag-PAR" y="1920"><path fill="#fff" d="M142.105 189.417l-42.107-42.094-42.09 42.094V142.09H10.574l42.102-42.093-42.102-42.093h47.332v-47.32l42.09 42.092 42.108-42.093v47.32h47.324l-42.1 42.094 42.1 42.093h-47.325z"/><path fill="#ED1C24" d="M189.43 89.416L200 99.996l-10.57 10.582-10.587-10.58z"/><path fill="#ED1C24" d="M10.575 89.416l10.586 10.58-10.585 10.582L0 99.998z"/><path fill="#ED1C24" d="M89.422 10.583L99.998 0l10.583 10.583L100 21.16z"/><path fill="#ED1C24" d="M89.422 189.417l10.576-10.576 10.583 10.577L100 200z"/><g transform="translate(-197.045 -320.835)"><g><radialGradient id="aia" cx="391.801" cy="80.211" r="77.67" gradientTransform="matrix(.999 0 0 -.999 -94.331 500.957)" gradientUnits="userSpaceOnUse"><stop offset="0" stop-color="#fff"/><stop offset=".25" stop-color="#FAF9F8"/><stop offset=".439" stop-color="#EFECEA"/><stop offset=".608" stop-color="#DFD9D7"/><stop offset=".766" stop-color="#CBC2BF"/><stop offset=".914" stop-color="#B2A6A2"/><stop offset="1" stop-color="#A29490"/></radialGradient><path fill="url(#aia)" d="M333.582 498.417l-36.54-36.528-36.517 36.527v-41.064h-41.063l36.52-36.52-36.52-36.523h41.063v-41.06l36.518 36.524 36.54-36.523v41.06h41.052l-36.527 36.522 36.527 36.52h-41.053z"/></g><defs><path id="aib" d="M333.582 498.417l-36.54-36.528-36.517 36.527v-41.064h-41.063l36.52-36.52-36.52-36.523h41.063v-41.06l36.518 36.524 36.54-36.523v41.06h41.052l-36.527 36.522 36.527 36.52h-41.053z"/></defs><clipPath id="aic"><use xlink:href="#aib" overflow="visible"/></clipPath><g clip-path="url(#aic)"><path fill="#00458C" d="M218.206 442.867H378.16v56.398H218.206z"/><path fill="#ED1C24" d="M218.206 341.056H378.16v57.417H218.206z"/></g><defs><path id="aid" d="M333.582 498.417l-36.54-36.528-36.517 36.527v-41.064h-41.063l36.52-36.52-36.52-36.523h41.063v-41.06l36.518 36.524 36.54-36.523v41.06h41.052l-36.527 36.522 36.527 36.52h-41.053z"/></defs><clipPath id="aie"><use xlink:href="#aid" overflow="visible"/></clipPath><g clip-path="url(#aie)"><path d="M297.046 438.907c-9.966 0-18.074-8.107-18.074-18.073 0-9.963 8.108-18.072 18.074-18.072s18.072 8.108 18.072 18.072c0 9.966-8.107 18.073-18.072 18.073zm0-35.44c-9.578 0-17.37 7.79-17.37 17.368s7.792 17.37 17.37 17.37c9.577 0 17.37-7.793 17.37-17.37s-7.793-17.37-17.37-17.37z"/><path fill="#ED1C24" d="M297.046 436.946c-8.885 0-16.112-7.23-16.112-16.112 0-8.885 7.228-16.11 16.112-16.11 8.883 0 16.11 7.226 16.11 16.11s-7.226 16.112-16.11 16.112zm0-27.883c-6.49 0-11.77 5.28-11.77 11.77 0 6.492 5.28 11.772 11.77 11.772s11.77-5.28 11.77-11.77c0-6.492-5.28-11.772-11.77-11.772z"/><path fill="#00692B" d="M297.046 430.89c-5.545 0-10.056-4.512-10.056-10.056 0-5.543 4.51-10.055 10.056-10.055s10.056 4.51 10.056 10.054c0 5.545-4.512 10.056-10.056 10.056zm0-18.012c-4.39 0-7.957 3.57-7.957 7.956 0 4.388 3.568 7.957 7.956 7.957s7.956-3.568 7.956-7.956c0-4.387-3.57-7.956-7.956-7.956z"/><circle fill="#00458C" cx="297.046" cy="420.834" r="6.039"/><path fill="#FFF200" d="M299.016 421.534l1.217 3.747-3.187-2.315-3.19 2.316 1.218-3.746-3.187-2.317h3.94l1.22-3.748 1.215 3.747h3.942z"/></g></g></svg><svg version="1" width="240" height="240" viewBox="-20 -20 240 240" id="flag-PER" y="2160"><g transform="translate(-197.532 -320.833)"><path fill="#fff" d="M339.626 510.25l-42.104-42.095-42.092 42.095v-47.323h-47.332l42.103-42.095-42.102-42.094h47.332v-47.322l42.092 42.094 42.104-42.094v47.322h47.326l-42.097 42.094 42.097 42.095h-47.326z"/><path fill="#ED1C24" d="M376.367 420.804l10.577-10.58 10.582 10.58-10.576 10.58z"/><path fill="#ED1C24" d="M208.098 410.25l10.59 10.582-10.59 10.58-10.566-10.58z"/><path fill="#ED1C24" d="M286.946 331.416l10.576-10.583 10.588 10.583-10.588 10.58z"/><path fill="#ED1C24" d="M286.946 510.25l10.576-10.576 10.588 10.576-10.588 10.583z"/><g><g><radialGradient id="aja" cx="525.759" cy="984.781" r="171.974" gradientTransform="matrix(.999 0 0 .999 -190.056 -639.874)" gradientUnits="userSpaceOnUse"><stop offset="0" stop-color="#fff"/><stop offset=".25" stop-color="#FAF9F8"/><stop offset=".439" stop-color="#EFECEA"/><stop offset=".608" stop-color="#DFD9D7"/><stop offset=".766" stop-color="#CBC2BF"/><stop offset=".914" stop-color="#B2A6A2"/><stop offset="1" stop-color="#A29490"/></radialGradient><path fill="url(#aja)" d="M334.052 498.416l-36.53-36.522-36.518 36.522v-41.058h-41.06l36.518-36.526-36.52-36.524h41.062V343.25l36.518 36.522 36.53-36.52v41.056h41.055l-36.516 36.524 36.517 36.526h-41.055z"/></g><defs><path id="ajb" d="M334.052 498.416l-36.53-36.522-36.518 36.522v-41.058h-41.06l36.518-36.526-36.52-36.524h41.062V343.25l36.518 36.522 36.53-36.52v41.056h41.055l-36.516 36.524 36.517 36.526h-41.055z"/></defs><clipPath id="ajc"><use xlink:href="#ajb" overflow="visible"/></clipPath><g clip-path="url(#ajc)" fill="#ED1C24"><path d="M215.89 339.732h59.816v159.942H215.89z"/><path d="M319.346 339.732h59.812v159.942h-59.812z"/></g></g></g></svg><svg version="1" width="240" height="240" viewBox="-20 -20 240 240" id="flag-URU" y="2400"><g transform="translate(-197.53 -320.837)"><path fill="#fff" d="M339.628 510.257l-42.106-42.097-42.086 42.097v-47.33H208.1l42.103-42.094-42.103-42.1h47.336v-47.32l42.086 42.092 42.106-42.09v47.32h47.325l-42.103 42.098 42.103 42.094h-47.325v47.327z"/><g><g><radialGradient id="aka" cx="525.758" cy="984.777" r="171.974" gradientTransform="matrix(.999 0 0 .999 -190.049 -639.873)" gradientUnits="userSpaceOnUse"><stop offset="0" stop-color="#fff"/><stop offset=".25" stop-color="#FAF9F8"/><stop offset=".439" stop-color="#EFECEA"/><stop offset=".608" stop-color="#DFD9D7"/><stop offset=".766" stop-color="#CBC2BF"/><stop offset=".914" stop-color="#B2A6A2"/><stop offset="1" stop-color="#A29490"/></radialGradient><path fill="url(#aka)" d="M334.057 498.415l-36.535-36.524-36.515 36.525v-41.06h-41.064l36.522-36.522-36.522-36.523h41.064v-41.067l36.515 36.533 36.535-36.533v41.067h41.05l-36.52 36.523 36.52 36.523h-41.05z"/></g><defs><path id="akb" d="M334.057 498.415l-36.535-36.524-36.515 36.525v-41.06h-41.064l36.522-36.522-36.522-36.523h41.064v-41.067l36.515 36.533 36.535-36.533v41.067h41.05l-36.52 36.523 36.52 36.523h-41.05z"/></defs><clipPath id="akc"><use xlink:href="#akb" overflow="visible"/></clipPath><g clip-path="url(#akc)"><g fill="#00458C"><path d="M297.932 317.773h84.434v55.31h-84.434z"/><path d="M297.932 392.175h84.434v19.106h-84.434z"/><path d="M223.575 430.384h158.79v19.104h-158.79z"/><path d="M223.575 468.584h158.79v55.31h-158.79z"/></g><path fill="#FBAA19" d="M276.696 409.373l1.413 9.513-4.222-8.648-1.6 9.49-1.34-9.53-4.45 8.534 1.663-9.477-6.86 6.736 4.522-8.497-8.617 4.284 6.916-6.684-9.516 1.41 8.642-4.22-9.485-1.59 9.53-1.347-8.532-4.447 9.48 1.665-6.74-6.87 8.495 4.516-4.284-8.607 6.688 6.915-1.41-9.52 4.218 8.652 1.59-9.495 1.35 9.532 4.444-8.526-1.666 9.474 6.867-6.738-4.506 8.5 8.61-4.292-6.915 6.69 9.51-1.404-8.646 4.208 9.486 1.602-9.522 1.337 8.523 4.456-9.478-1.672 6.738 6.873-8.493-4.518 4.284 8.615z"/></g></g><path fill="#FBAA19" d="M386.953 410.25l10.577 10.583-10.577 10.584-10.584-10.584z"/><path fill="#FBAA19" d="M208.1 410.25l10.593 10.583-10.593 10.584-10.57-10.584z"/><path fill="#FBAA19" d="M286.948 331.414l10.574-10.577 10.586 10.577-10.586 10.576z"/><path fill="#FBAA19" d="M286.948 510.257l10.574-10.584 10.586 10.584-10.586 10.58z"/></g></svg><svg version="1" width="240" height="240" viewBox="-20 -20 240 240" id="flag-VEN" y="2640"><g transform="translate(-197.53 -320.835)"><path fill="#fff" d="M339.63 510.252l-42.104-42.094-42.09 42.094v-47.327h-47.332l42.1-42.093-42.1-42.093h47.332v-47.322l42.09 42.093 42.105-42.092v47.32h47.323l-42.1 42.094 42.1 42.093H339.63z"/><path fill="#FFD400" d="M386.953 410.25l10.577 10.582-10.577 10.58-10.584-10.58z"/><path fill="#FFD400" d="M208.104 410.25l10.59 10.582-10.59 10.58-10.574-10.58z"/><path fill="#FFD400" d="M286.948 331.418l10.578-10.583 10.588 10.583-10.588 10.576z"/><path fill="#FFD400" d="M286.948 510.252l10.578-10.576 10.588 10.576-10.588 10.583z"/><g><g><radialGradient id="ala" cx="430.413" cy="157.304" r="171.97" gradientTransform="matrix(.999 0 0 -.999 -94.807 500.957)" gradientUnits="userSpaceOnUse"><stop offset="0" stop-color="#fff"/><stop offset=".25" stop-color="#FAF9F8"/><stop offset=".439" stop-color="#EFECEA"/><stop offset=".608" stop-color="#DFD9D7"/><stop offset=".766" stop-color="#CBC2BF"/><stop offset=".914" stop-color="#B2A6A2"/><stop offset="1" stop-color="#A29490"/></radialGradient><path fill="url(#ala)" d="M334.06 498.417l-36.534-36.528-36.517 36.527v-41.064h-41.063l36.522-36.52-36.523-36.523h41.062v-41.06l36.516 36.524 36.535-36.523v41.06h41.05l-36.515 36.522 36.514 36.52h-41.05z"/></g><defs><path id="alb" d="M334.06 498.417l-36.534-36.528-36.517 36.527v-41.064h-41.063l36.522-36.52-36.523-36.523h41.062v-41.06l36.516 36.524 36.535-36.523v41.06h41.05l-36.515 36.522 36.514 36.52h-41.05z"/></defs><clipPath id="alc"><use xlink:href="#alb" overflow="visible"/></clipPath><g clip-path="url(#alc)"><path fill="#00458C" d="M218.693 395.49h159.943v50.37H218.693z"/><path fill="#ED1C24" d="M218.693 442.867h159.943v56.398H218.693z"/><path fill="#FFD400" d="M218.693 341.056h159.943v57.417H218.693z"/><path fill="#fff" d="M289.9 403.22l1.828 3.468 3.862-.667-2.732 2.812 1.828 3.467-3.518-1.732-2.733 2.81.56-3.878-3.518-1.73 3.863-.668.56-3.882zm-13.574 9.067l-3.393 1.962 3.9.407.815 3.833 1.593-3.582 3.9.407-2.915-2.622 1.592-3.582-3.393 1.963-2.915-2.622.816 3.837zm-10.43 9.303l-2.52 3.005 3.805-.95 2.08 3.323.27-3.91 3.805-.948-3.636-1.47.27-3.91-2.518 3.003-3.635-1.467 2.08 3.324zm-6.636 12.318l-1.36 3.676 3.262-2.173 3.076 2.433-1.06-3.774 3.263-2.175-3.916-.16-1.06-3.773-1.36 3.677-3.918-.16 3.074 2.428zm45.895-30.688l-1.828 3.468-3.862-.667 2.733 2.812-1.828 3.467 3.518-1.732 2.73 2.81-.56-3.878 3.518-1.73-3.86-.668-.56-3.882zm14.39 5.233l-2.913 2.622-3.395-1.962 1.594 3.582-2.913 2.622 3.897-.407 1.595 3.582.814-3.833 3.898-.41-3.394-1.96.818-3.837zm11.693 9.813l-3.636 1.468-2.518-3.004.272 3.91-3.637 1.47 3.803.947.27 3.91 2.08-3.32 3.803.948-2.518-3.005 2.08-3.324zm7.632 13.212l-3.916.16-1.362-3.68-1.06 3.775-3.916.158 3.262 2.176-1.06 3.774 3.076-2.432 3.262 2.173-1.36-3.675 3.074-2.427z"/></g></g></g></svg><svg version="1" width="240" height="240" viewBox="-20 -20 240 240" id="flag-default" y="2880"><path fill="#E9E9E9" d="M189.423 142.1h-47.328v47.318l-42.1-42.086-42.088 42.086v-47.32H10.572l42.104-42.092-42.104-42.1h47.335V10.59L99.994 52.68l42.1-42.092v47.32h47.33l-42.1 42.098zM178.835 100.005l10.588 10.583L200 100.005 189.423 89.43zM0 100.005l10.572 10.583 10.583-10.583L10.572 89.43zM99.994 0L89.42 10.588l10.574 10.576 10.58-10.576zM89.42 189.418L99.994 200l10.58-10.582-10.58-10.57z"/></svg><svg width="94" height="72" viewBox="-20 -20 94 72" id="icon-arrow-down-white" y="3120"><path fill="#fff" d="M53 6.068L48.96 2 27 23.93 5.038 2 1 6.068 27 32 53 6.068z"/></svg><svg width="72" height="94" viewBox="-20 -20 72 94" id="icon-arrow-more-blue" y="3192"><path fill="#03539C" d="M6.068 1L2 5.04 23.928 27 2.002 48.962 6.068 53 32 27 6.068 1z"/></svg><svg width="64" height="80" viewBox="-12 -20 64 80" enable-background="new 8 0 24 40" id="icon-arrow-more-gray-mask" y="3286"><path fill="#e9eef3" d="M5-3v46h30V-3H5zm7.792 42.26L9.78 36.27 26.02 20 9.78 3.734 12.792.74 32 20 12.792 39.26z"/></svg><svg version="1" width="72" height="94" viewBox="-20 -20 72 94" id="icon-arrow-more-white" y="3366"><path fill="#fff" d="M6.068 1L2 5.04 23.928 27 2.002 48.962 6.068 53 32 27 6.068 1z"/></svg><svg width="64" height="80" viewBox="-12 -20 64 80" enable-background="new 8 0 24 40" id="icon-arrow-more-white-mask" y="3460"><path fill="#fff" d="M5-3v46h30V-3H5zm7.792 42.26L9.78 36.27 26.02 20 9.78 3.734 12.792.74 32 20 12.792 39.26z"/></svg><svg width="72" height="94" viewBox="-20 -20 72 94" id="icon-arrow-prev-white" y="3540"><path fill="#fff" d="M27.933 53L32 48.96 10.072 27 31.998 5.038 27.933 1 2 27l25.933 26z"/></svg><svg version="1" width="64" height="80" viewBox="-20 -20 64 80" id="icon-arrow-prev-white-mask" y="3634"><path fill="#fff" d="M27 43V-3H-3v46h30zM20.985.74l3.013 2.99L7.756 20 24 36.266l-3.015 2.994L1.777 20 20.985.74z"/></svg><svg width="94" height="72" viewBox="-20 -20 94 72" id="icon-arrow-up-white" y="3714"><path fill="#fff" d="M1 25.932L5.04 30 27 8.072l21.962 21.926L53 25.932 27 0 1 25.932z"/></svg><svg width="81" height="81" viewBox="-20 -20 81 81" id="icon-clock-gray" y="3786"><path fill="#555" d="M20.5 4.98c-8.576 0-15.523 6.945-15.523 15.52S11.924 36.02 20.5 36.02c8.575 0 15.523-6.945 15.523-15.52S29.075 4.98 20.5 4.98zm0 28.18c-6.996 0-12.66-5.665-12.66-12.66S13.505 7.84 20.5 7.84c6.994 0 12.658 5.662 12.658 12.66 0 6.995-5.662 12.66-12.658 12.66zm1.3-13.096h7.43v3.54H18.257V11.538h3.54v8.526z"/></svg><svg version="1" width="240" height="240" viewBox="-20 -20 240 240" id="icon-close-white" y="3867"><path fill="#fff" d="M200 192.165L192.14 200l-93.17-92.895-91.216 90.948L0 190.323 91.34 99.25.67 8.846 8.53 1.01l90.546 90.28L190.632 0l7.76 7.733-91.682 91.412 93.29 93.02z"/></svg><svg width="88" height="88" viewBox="-20 -20 88 88" id="icon-comment-blue" y="4107"><path fill="#002A4F" d="M8.86 4.787v30.28h11.63l-4.654 8.146 15.13-8.147h8.173V4.786z"/></svg><svg width="88" height="88" viewBox="-20 -20 88 88" id="icon-comment-white-mask" y="4195"><path fill="#fff" d="M-5-5v58h58V-5H-5zm44.14 40.066h-8.174l-15.13 8.146 4.654-8.146H8.86V4.786h30.28v30.28z"/></svg><svg width="240" height="298.8235294117647" viewBox="-20 -20 652 832" id="icon-download" y="4283"><path fill="#012A4E" d="M457.137 97.983H61.2v596.035h489.6V191.645l-93.663-93.662zm-12.772 42.574l63.86 63.86h-63.86v-63.86zm63.86 510.886h-404.45V140.557H401.79v106.435h106.436v404.45zM337.93 268.278h-42.573V493.92h-63.86l85.147 85.148 85.147-85.148h-63.86V268.278z"/></svg><svg width="88" height="88" viewBox="-20 -20 88 88" id="icon-facebook" y="4582"><path fill="#fff" d="M19.13 17.315h-4.044v6.603h4.045v19.395h7.78V23.835h5.426l.578-6.52H26.91V13.6c0-1.537.31-2.145 1.794-2.145h4.21V4.688h-5.386c-5.788 0-8.397 2.548-8.397 7.428v5.2z"/></svg><svg width="88" height="88" viewBox="-20 -20 88 88" id="icon-facebook-blue" y="4670"><path fill="#002A4F" d="M19.13 17.315h-4.044v6.603h4.045v19.395h7.78V23.835h5.426l.578-6.52H26.91V13.6c0-1.537.31-2.145 1.794-2.145h4.21V4.688h-5.387c-5.788 0-8.396 2.548-8.396 7.428v5.2z"/></svg><svg width="88" height="88" viewBox="-20 -20 88 88" id="icon-facebook-blue-mask" y="4758"><path fill="#DCE3EC" d="M-5-5v58h58V-5H-5zm37.594 28.5h-5.427v19.48H19.39V23.583h-4.046V16.98h4.045v-5.198c0-4.88 2.608-7.428 8.395-7.428h5.386v6.767h-4.208c-1.485 0-1.795.61-1.795 2.147v3.714h6.005l-.578 6.52z"/></svg><svg width="88" height="88" viewBox="-20 -20 88 88" id="icon-facebook-white-mask" y="4846"><path fill="#fff" d="M-5-5v58h58V-5H-5zm37.594 28.5h-5.427v19.48H19.39V23.583h-4.046V16.98h4.045v-5.198c0-4.88 2.608-7.428 8.395-7.428h5.386v6.767h-4.208c-1.485 0-1.795.61-1.795 2.147v3.714h6.005l-.578 6.52z"/></svg><svg width="240" height="212" viewBox="-20 -20 240 212" id="icon-gallery" y="4934"><path fill="#002A4F" d="M157.144 28.57V14.286h-28.572V0H71.43v14.286H42.857v14.286H0V171.43h200V28.57h-42.856zM100 135.715c-24.286 0-42.857-18.572-42.857-42.856C57.143 68.57 75.715 50 100 50c24.286 0 42.857 18.57 42.857 42.857 0 24.285-18.57 42.857-42.856 42.857zm0-68.572c-14.285 0-25.714 11.43-25.714 25.715S85.716 118.57 100 118.57c14.286 0 25.714-11.428 25.714-25.713S114.286 67.142 100 67.142z"/></svg><svg width="240" height="212" viewBox="-20 -20 240 212" id="icon-gallery-white" y="5146"><path fill="#fff" d="M157.144 28.57V14.286h-28.572V0H71.43v14.286H42.857v14.286H0V171.43h200V28.57h-42.856zM100 135.715c-24.286 0-42.857-18.572-42.857-42.856C57.143 68.57 75.715 50 100 50c24.286 0 42.857 18.57 42.857 42.857 0 24.285-18.57 42.857-42.856 42.857zm0-68.572c-14.285 0-25.714 11.43-25.714 25.715S85.716 118.57 100 118.57c14.286 0 25.714-11.428 25.714-25.713S114.286 67.142 100 67.142z"/></svg><svg width="88" height="88" viewBox="-19.5 772.5 88 88" enable-background="new 0.5 792.5 48 48" id="icon-gplus" y="5358"><path fill="#fff" d="M44.19 805.54h-5.22v5.22h-2.61v-5.22h-5.222v-2.61h5.22v-5.22h2.61v5.22h5.223zM24.635 819.16c-3.655-2.667-4.55-4.173-1.06-6.87 1.966-1.52 3.344-3.547 3.344-6.05 0-2.725-1.116-5.197-3.21-6.398h2.97l2.528-2.654H17.89c-7.063 0-10.527 4.234-10.527 8.893 0 4.76 3.266 8.51 9.643 8.51-.99 1.996-.592 3.84 1.026 5.157-10.89 0-13.222 4.78-13.222 8.46 0 4.77 5.483 7.606 12.058 7.606 8.99 0 12.563-4.764 12.563-8.678 0-3.19-1.19-5.276-4.795-7.976zM11.62 806.01c-.528-4.008 1.518-7.072 4.568-6.98 3.05.09 5.658 3.377 6.185 7.382.526 4.007-1.23 6.584-4.278 6.493-3.05-.093-5.95-2.89-6.476-6.895zm5.28 27.682c-4.544 0-7.826-2.876-7.826-6.333 0-3.387 3.85-6.31 8.396-6.26 5.042 0 8.047 3.142 8.047 6.437 0 3.455-2.807 6.155-8.617 6.155z"/></svg><svg width="88" height="88" viewBox="-19.5 772.5 88 88" enable-background="new 0.5 792.5 48 48" id="icon-gplus-blue" y="5446"><path fill="#002A4F" d="M44.19 805.54h-5.22v5.22h-2.61v-5.22h-5.222v-2.61h5.22v-5.22h2.61v5.22h5.223zM24.635 819.16c-3.655-2.667-4.55-4.173-1.06-6.87 1.966-1.52 3.344-3.547 3.344-6.05 0-2.725-1.116-5.197-3.21-6.398h2.97l2.528-2.654H17.89c-7.063 0-10.527 4.234-10.527 8.893 0 4.76 3.266 8.51 9.643 8.51-.99 1.996-.592 3.84 1.026 5.157-10.89 0-13.222 4.78-13.222 8.46 0 4.77 5.483 7.606 12.058 7.606 8.99 0 12.563-4.764 12.563-8.678 0-3.19-1.19-5.276-4.795-7.976zM11.62 806.01c-.528-4.008 1.518-7.072 4.568-6.98 3.05.09 5.658 3.377 6.185 7.382.526 4.007-1.23 6.584-4.278 6.493-3.05-.093-5.95-2.89-6.476-6.895zm5.28 27.682c-4.544 0-7.826-2.876-7.826-6.333 0-3.387 3.85-6.31 8.396-6.26 5.042 0 8.047 3.142 8.047 6.437 0 3.455-2.807 6.155-8.617 6.155z"/></svg><svg width="88" height="88" viewBox="-20 -20 88 88" id="icon-gplus-blue-mask" y="5534"><g fill="#DCE3EC"><path d="M16.97 28.6c-4.546-.05-8.396 2.873-8.396 6.26 0 3.457 3.282 6.332 7.826 6.332 5.81 0 8.615-2.7 8.617-6.154 0-3.296-3.005-6.438-8.047-6.438zM21.872 13.912c-.526-4.005-3.136-7.292-6.185-7.383-3.05-.093-5.097 2.972-4.57 6.98.527 4.003 3.426 6.802 6.478 6.895 3.05.09 4.803-2.487 4.277-6.493zM-5-5v58h58V-5H-5zm21.367 48.313c-6.575 0-12.058-2.834-12.058-7.605 0-3.682 2.33-8.46 13.22-8.46-1.617-1.32-2.014-3.162-1.025-5.158-6.377 0-9.643-3.75-9.643-8.51 0-4.658 3.464-8.892 10.528-8.892h11.316L26.178 7.34h-2.97c2.095 1.202 3.21 3.674 3.21 6.4 0 2.502-1.38 4.527-3.345 6.048-3.49 2.698-2.595 4.204 1.06 6.87 3.605 2.7 4.795 4.785 4.797 7.977 0 3.914-3.574 8.678-12.563 8.678zM43.69 13.04h-5.223v5.22h-2.61v-5.22h-5.22v-2.61h5.22V5.208h2.61v5.22h5.223v2.613z"/></g></svg><svg width="88" height="88" viewBox="-20 -20 88 88" id="icon-gplus-white-mask" y="5622"><g fill="#fff"><path d="M16.97 28.6c-4.546-.05-8.396 2.873-8.396 6.26 0 3.457 3.282 6.332 7.826 6.332 5.81 0 8.615-2.7 8.617-6.154 0-3.296-3.005-6.438-8.047-6.438zM21.872 13.912c-.526-4.005-3.136-7.292-6.185-7.383-3.05-.093-5.097 2.972-4.57 6.98.527 4.003 3.426 6.802 6.478 6.895 3.05.09 4.803-2.487 4.277-6.493zM-5-5v58h58V-5H-5zm21.367 48.313c-6.575 0-12.058-2.834-12.058-7.605 0-3.682 2.33-8.46 13.22-8.46-1.617-1.32-2.014-3.162-1.025-5.158-6.377 0-9.643-3.75-9.643-8.51 0-4.658 3.464-8.892 10.528-8.892h11.316L26.178 7.34h-2.97c2.095 1.202 3.21 3.674 3.21 6.4 0 2.502-1.38 4.527-3.345 6.048-3.49 2.698-2.595 4.204 1.06 6.87 3.605 2.7 4.795 4.785 4.797 7.977 0 3.914-3.574 8.678-12.563 8.678zM43.69 13.04h-5.223v5.22h-2.61v-5.22h-5.22v-2.61h5.22V5.208h2.61v5.22h5.223v2.613z"/></g></svg><svg width="88" height="88" viewBox="-20 -20 88 88" id="icon-hamburger" y="5710"><path fill="#fff" d="M0 0v9.6h48V0H0zm0 28.8h48v-9.6H0v9.6zM0 48h48v-9.6H0V48z"/></svg><svg width="88" height="88" viewBox="-20 -20 88 88" enable-background="new 0 0 512 512" id="icon-instagram" y="5798"><path d="M31.988 18.482h11.224v17.23c0 4.198-3.402 7.6-7.6 7.6H12.388c-4.197 0-7.6-3.402-7.6-7.6v-17.23h11.175c-1.144 1.607-1.82 3.57-1.82 5.694 0 5.43 4.403 9.83 9.833 9.83 5.43 0 9.832-4.4 9.832-9.83 0-2.123-.675-4.087-1.82-5.694zm11.224-6.195v4.99H30.98c-1.784-1.81-4.263-2.933-7.005-2.933s-5.22 1.123-7.004 2.934H4.79v-4.99c0-2.562 1.268-4.826 3.21-6.203v8.183h1.558V5.235c.354-.142.72-.258 1.098-.346v9.38h1.558V4.69c.058-.002.117-.005.175-.005h.9v9.58h1.558v-9.58h20.768c4.197 0 7.6 3.403 7.6 7.6zM39.74 9.084c0-.673-.547-1.22-1.22-1.22h-4.11c-.672 0-1.218.547-1.218 1.22v4.2c0 .672.546 1.218 1.22 1.218h4.108c.673 0 1.22-.546 1.22-1.22V9.085zM16.4 24.175c0-2.267 1.003-4.303 2.587-5.693.556-.487 1.183-.894 1.864-1.204.954-.433 2.01-.677 3.125-.677 1.114 0 2.17.245 3.124.678.68.31 1.307.717 1.863 1.204 1.584 1.39 2.586 3.426 2.586 5.694 0 4.176-3.398 7.574-7.575 7.574S16.4 28.352 16.4 24.175zm2.002 0c0 3.092 2.506 5.598 5.598 5.598s5.598-2.506 5.598-5.598c0-3.09-2.506-5.598-5.598-5.598s-5.598 2.507-5.598 5.598z" fill="#fff"/></svg><svg width="240" height="240" viewBox="-20 -20 240 240" id="icon-logout-blue-mask" y="5886"><path fill="#003666" d="M-10-10v220h220V-10H-10zm146 179H5V31h131v36h-19V49H23v102h94v-18h19v36zm20-30.462V119H87V81h69V61.462l38.693 38.536L156 138.538z"/></svg><svg width="240" height="240" viewBox="-20 -20 240 240" id="icon-logout-bluedark-mask" y="6126"><path fill="#0B2A56" d="M-10-10v220h220V-10H-10zm146 179H5V31h131v36h-19V49H23v102h94v-18h19v36zm20-30.462V119H87V81h69V61.462l38.693 38.536L156 138.538z"/></svg><svg width="240" height="240" viewBox="-20 -20 240 240" id="icon-minus-blue" y="6366"><path fill="#002B4E" d="M200 82.187H0v35.626h200z"/></svg><svg width="240" height="240" viewBox="-319.5 380.5 240 240" enable-background="new -299.5 400.5 200 200" id="icon-minus-white" y="6606"><path fill="#fff" d="M-99.5 481.95h-200v35.627h200z"/></svg><svg width="51.92" height="56.480000000000004" viewBox="-20 -20 51.92 56.480000000000004" id="icon-play" y="6846"><path fill="#00468C" d="M11.92 8.24L0 16.48V0l11.92 8.24z"/></svg><svg width="240" height="240" viewBox="-319.5 380.5 240 240" enable-background="new -299.5 400.5 200 200" id="icon-plus-white" y="6903"><path fill="#fff" d="M-99.5 481.95h-81.723V400.5h-34.63v81.45H-299.5v35.627h83.646V600.5h34.63v-82.923H-99.5z"/></svg><svg width="240" height="247" viewBox="-20 -20 240 247" id="icon-share" y="7143"><path fill="#002A4F" d="M163.193 134.83c-9.673 0-18.27 4.298-23.645 11.82l-72.01-42.994c0-2.147 1.074-3.222 1.074-5.372L139.55 55.29c5.373 7.524 13.97 12.898 23.644 12.898 16.123 0 29.02-13.972 29.02-30.095C192.214 20.898 179.314 8 162.12 8s-30.095 13.973-30.095 30.095c0 2.15 0 4.3 1.073 5.374l-69.86 41.917c-5.373-9.673-15.046-16.122-25.793-16.122C22.398 68.19 9.5 81.087 9.5 98.285c0 17.196 12.897 30.094 29.02 30.094 9.673 0 18.27-4.3 23.645-11.824l72.01 42.993c0 2.148-1.076 4.298-1.076 6.447 0 17.197 12.897 31.17 29.02 31.17 16.12 0 30.094-13.974 30.094-31.17 1.074-17.196-12.9-31.168-29.02-31.168z"/></svg><svg width="88" height="88" viewBox="-20 -20 88 88" enable-background="new 0 0 512 512" id="icon-twitter" y="7390"><path d="M43.313 12.02c-1.422.63-2.95 1.057-4.552 1.25 1.637-.982 2.894-2.535 3.485-4.385-1.53.908-3.227 1.567-5.032 1.922-1.445-1.54-3.505-2.502-5.784-2.502-5.116 0-8.876 4.774-7.72 9.73-6.586-.33-12.425-3.485-16.333-8.28C5.3 13.318 6.3 17.978 9.83 20.336c-1.3-.04-2.522-.397-3.59-.99-.086 3.67 2.545 7.104 6.355 7.87-1.115.303-2.336.372-3.578.135 1.008 3.148 3.935 5.44 7.402 5.503-3.332 2.61-7.528 3.777-11.733 3.282 3.507 2.248 7.673 3.56 12.148 3.56 14.712 0 23.024-12.427 22.523-23.572 1.55-1.117 2.892-2.513 3.955-4.102z" fill="#fff"/></svg><svg width="88" height="88" viewBox="-20 -20 88 88" id="icon-twitter-blue" y="7478"><path fill="#002A4F" d="M43.313 12.02c-1.42.63-2.948 1.058-4.55 1.25 1.634-.98 2.892-2.535 3.482-4.385-1.53.908-3.228 1.567-5.032 1.923-1.445-1.54-3.504-2.502-5.783-2.502-5.115 0-8.876 4.773-7.72 9.73-6.586-.33-12.425-3.485-16.333-8.28C5.3 13.32 6.3 17.98 9.83 20.337c-1.3-.04-2.522-.396-3.59-.99-.086 3.67 2.545 7.105 6.355 7.87-1.115.304-2.336.374-3.578.136 1.008 3.148 3.935 5.44 7.402 5.504-3.333 2.61-7.53 3.777-11.733 3.28 3.507 2.25 7.672 3.562 12.147 3.562 14.712 0 23.024-12.428 22.523-23.572 1.55-1.12 2.893-2.516 3.956-4.105z"/></svg><svg width="88" height="88" viewBox="-20 -20 88 88" id="icon-twitter-blue-mask" y="7566"><path fill="#DCE3EC" d="M-5-5v58h58V-5H-5zm44.357 21.124c.5 11.144-7.812 23.572-22.523 23.572-4.475 0-8.64-1.313-12.146-3.562 4.204.496 8.4-.67 11.73-3.28-3.466-.065-6.393-2.356-7.4-5.505 1.24.237 2.463.167 3.578-.136-3.81-.766-6.44-4.2-6.355-7.87 1.07.593 2.292.95 3.59.99-3.53-2.36-4.528-7.02-2.452-10.58 3.908 4.794 9.747 7.95 16.333 8.28-1.154-4.958 2.605-9.73 7.72-9.73 2.28 0 4.34.96 5.784 2.5 1.805-.354 3.502-1.014 5.032-1.922-.59 1.85-1.85 3.404-3.483 4.384 1.604-.19 3.13-.618 4.55-1.248-1.063 1.59-2.407 2.986-3.956 4.106z"/></svg><svg width="88" height="88" viewBox="-20 -20 88 88" id="icon-twitter-white-mask" y="7654"><path fill="#fff" d="M-5-5v58h58V-5H-5zm44.357 21.124c.5 11.144-7.812 23.572-22.523 23.572-4.475 0-8.64-1.313-12.146-3.562 4.204.496 8.4-.67 11.73-3.28-3.466-.065-6.393-2.356-7.4-5.505 1.24.237 2.463.167 3.578-.136-3.81-.766-6.44-4.2-6.355-7.87 1.07.593 2.292.95 3.59.99-3.53-2.36-4.528-7.02-2.452-10.58 3.908 4.794 9.747 7.95 16.333 8.28-1.154-4.958 2.605-9.73 7.72-9.73 2.28 0 4.34.96 5.784 2.5 1.805-.354 3.502-1.014 5.032-1.922-.59 1.85-1.85 3.404-3.483 4.384 1.604-.19 3.13-.618 4.55-1.248-1.063 1.59-2.407 2.986-3.956 4.106z"/></svg><svg width="240" height="240" viewBox="-20 -20 240 240" id="icon-user-blue" y="7742"><path fill="#00AEEA" d="M159.11 58.46c0 32.304-26.144 58.487-58.382 58.487-32.242 0-58.378-26.176-58.378-58.486C42.35 26.177 68.488 0 100.73 0c32.237.008 58.38 26.176 58.38 58.46zm-10.188 61.23c-13.604 10.77-30.473 16.737-48.186 16.737-17.918 0-34.945-6.11-48.61-17.082-36.03 13.23-31.927 59.52-31.927 80.654H179.76c-.006-20.94 4.465-66.902-30.84-80.31z"/></svg><svg width="240" height="240" viewBox="-20 -20 240 240" id="icon-user-blue-mask" y="7982"><path fill="#003666" d="M100.73 0c32.237.008 58.382 26.176 58.382 58.46 0 32.304-26.145 58.487-58.383 58.487-32.243 0-58.378-26.176-58.378-58.486C42.352 26.177 68.488 0 100.73 0H0v200h20.2c0-21.136-4.105-67.425 31.925-80.654 13.666 10.972 30.693 17.082 48.61 17.082 17.714 0 34.583-5.97 48.187-16.737 35.305 13.408 30.834 59.37 30.84 80.31H200V0h-99.27z"/></svg><svg width="240" height="240" viewBox="300.945 177.64 240 240" enable-background="new 320.945 197.64 200 200" id="icon-user-white" y="8222"><path fill="#fff" d="M480.057 256.102c0 32.303-26.145 58.486-58.384 58.486-32.24 0-58.377-26.176-58.377-58.486 0-32.286 26.137-58.462 58.377-58.462 32.24.008 58.384 26.176 58.384 58.462zm-10.19 61.23c-13.603 10.767-30.473 16.736-48.186 16.736-17.916 0-34.943-6.11-48.61-17.08-36.028 13.228-31.926 59.517-31.926 80.652h159.564c-.007-20.94 4.463-66.9-30.84-80.31z"/></svg><svg width="88" height="88" viewBox="212 212 88 88" id="icon-youtube" y="8462"><path fill="#FFF" d="M243.64 235.812h2.423l1.66 6.228 1.542-6.228h2.445l-2.8 9.262v6.32h-2.407v-6.32l-2.864-9.262zm7.96 12.715c0 2.025 1.06 3.08 3.132 3.08 1.718 0 3.07-1.15 3.07-3.08v-5.634c0-1.798-1.338-3.088-3.07-3.088-1.882 0-3.13 1.244-3.13 3.088v5.634zm2.2-5.444c0-.63.29-1.096.89-1.096.656 0 .936.453.936 1.096v5.346c0 .624-.32 1.086-.894 1.086-.59 0-.932-.483-.932-1.088v-5.347zm9.78-3.184v8.723c-.26.326-.84.86-1.256.86-.457 0-.57-.31-.57-.773v-8.81h-2.137v9.607c0 1.135.348 2.053 1.494 2.053.648 0 1.545-.337 2.47-1.435v1.27h2.138V239.9h-2.137zm-3.143 23.56c.146.19.218.473.218.842v5.65c0 .35-.06.602-.176.756-.227.292-.713.28-1.043.11-.156-.078-.316-.205-.48-.385v-6.82c.137-.15.276-.262.418-.334.354-.18.814-.144 1.06.18zm6.85-.248c-.753 0-.908.53-.908 1.283v1.108h1.796v-1.108c0-.74-.156-1.283-.89-1.283zm6.207 8.075c0 2.706-2.192 4.9-4.9 4.9h-25.188c-2.706 0-4.9-2.194-4.9-4.9V258.91c0-2.707 2.194-4.9 4.9-4.9h25.19c2.705 0 4.898 2.193 4.898 4.9v12.378zm-26.732-11.453h2.37v-2.153H242.1v2.154h2.37v12.685h2.292v-12.686zm8.153 1.738h-2.036v8.31c-.25.31-.8.82-1.198.82-.436 0-.542-.3-.542-.738v-8.392h-2.034v9.15c0 2.22 1.506 2.233 2.603 1.605.404-.233.794-.572 1.17-1.02v1.21h2.035v-10.945zm7.834 2.607c0-1.486-.496-2.746-1.986-2.746-.726 0-1.35.464-1.81 1.024v-4.778H256.9v14.838h2.056v-.84c.566.706 1.187.98 1.932.98 1.354 0 1.86-1.053 1.86-2.407v-6.072zm7.52.335c0-1.978-.943-3.22-2.896-3.22-1.836 0-3.092 1.32-3.092 3.22v4.914c0 1.97.994 3.386 2.938 3.386 2.146 0 3.052-1.277 3.052-3.387v-.823h-2.095v.762c0 .95-.05 1.53-.91 1.53-.818 0-.888-.71-.888-1.53v-2.065h3.89v-2.79z"/></svg><svg width="240" height="104.705" viewBox="182.789 45.607 240 104.705" enable-background="new 202.789 65.607 200 64.705" id="logo-ca2015" y="8550"><g transform="translate(-105.533 -210.452)"><g><g><radialGradient id="cba" cx="1636.956" cy="-8363.19" r="39.041" gradientTransform="matrix(-.617 .752 .72 .59 7511.706 4008.803)" gradientUnits="userSpaceOnUse"><stop offset="0" stop-color="#fff"/><stop offset=".448" stop-color="#FCFBFA"/><stop offset=".61" stop-color="#F3F1EF"/><stop offset=".725" stop-color="#E7E3E1"/><stop offset=".818" stop-color="#D7D0CE"/><stop offset=".898" stop-color="#C4BAB7"/><stop offset=".967" stop-color="#AEA19E"/><stop offset="1" stop-color="#A29490"/></radialGradient><path fill="url(#cba)" d="M443.618 308.413c0-17.868 14.48-32.354 32.35-32.354s32.355 14.485 32.355 32.353c0 17.87-14.483 32.352-32.354 32.352s-32.352-14.48-32.352-32.352z"/></g><defs><circle id="cbb" cx="475.97" cy="308.413" r="32.352"/></defs><clipPath id="cbc"><use xlink:href="#cbb" overflow="visible"/></clipPath><g clip-path="url(#cbc)"><radialGradient id="cbd" cx="1560.659" cy="-8623.742" r="12.448" gradientTransform="matrix(0 .973 1.546 0 13809.142 -1193.301)" gradientUnits="userSpaceOnUse"><stop offset="0" stop-color="#F15B22"/><stop offset=".5" stop-color="#ED1C24"/><stop offset=".712" stop-color="#EA1C24"/><stop offset=".79" stop-color="#E31B23"/><stop offset=".845" stop-color="#D81A22"/><stop offset=".89" stop-color="#CA191F"/><stop offset=".928" stop-color="#B8151B"/><stop offset=".963" stop-color="#A31014"/><stop offset=".993" stop-color="#8A070A"/><stop offset="1" stop-color="#840406"/></radialGradient><path fill="url(#cbd)" d="M475.972 335.26l-1.11 1.106-.984-.982 1.107-1.11-5.133-5.136 3.297-3.298 2.482 2.512v2.406h-1.35v-1.854l-1.132-1.098-1.325 1.333 4.146 4.15 4.15-4.15-1.326-1.326-1.138 1.09v1.854h-1.39v-2.406l2.527-2.512 3.3 3.298-5.138 5.136 1.11 1.11-.99.982-1.103-1.106z"/><radialGradient id="cbe" cx="896.494" cy="-8359.957" r="14.932" gradientTransform="matrix(-.001 -.973 -2.214 .003 -18034.262 1188.239)" gradientUnits="userSpaceOnUse"><stop offset="0" stop-color="#0072BC"/><stop offset=".3" stop-color="#0061A8"/><stop offset=".66" stop-color="#0060A7"/><stop offset=".791" stop-color="#005DA2"/><stop offset=".885" stop-color="#00579A"/><stop offset=".96" stop-color="#114F90"/><stop offset="1" stop-color="#1F4888"/></radialGradient><path fill="url(#cbe)" d="M474.613 280.514c0-.587.48-1.066 1.064-1.066.594 0 1.067.478 1.067 1.066 0 .585-.475 1.067-1.067 1.067-.583 0-1.064-.48-1.064-1.066zm3.168 10.17v-1.455h-3.067l3.97-3.97.57.572-.828.827 1.034 1.027 1.853-1.854-2.63-2.627-2.57 2.562-.022-2.37-2.73-2.73-1.032 1.024 2.34 2.294.03 3.17-2.515 2.548 1.032.98h4.566zm.902-7.764l1.024-1.027-1.024-1.03-1.03 1.03 1.03 1.027z"/><radialGradient id="cbf" cx="1049.546" cy="-8233.485" r="13.065" gradientTransform="matrix(-.688 -.688 -1.144 1.144 -8237.454 10438.271)" gradientUnits="userSpaceOnUse"><stop offset="0" stop-color="#00BAF2"/><stop offset=".5" stop-color="#00AEEF"/><stop offset=".73" stop-color="#00ACED"/><stop offset=".814" stop-color="#00A8E8"/><stop offset=".873" stop-color="#00A3E1"/><stop offset=".922" stop-color="#009BD8"/><stop offset=".963" stop-color="#0091CD"/><stop offset=".999" stop-color="#0084BF"/><stop offset="1" stop-color="#0084BF"/></radialGradient><path fill="url(#cbf)" d="M444.208 297.51l-8.23-16.145 12.816-12.814 16.146 8.23-2.833 17.9z"/><radialGradient id="cbg" cx="1402.316" cy="-8725.089" r="13.069" gradientTransform="matrix(.674 .701 1.166 -1.122 9719.244 -10450.208)" gradientUnits="userSpaceOnUse"><stop offset="0" stop-color="#F15B22"/><stop offset=".5" stop-color="#ED1C24"/><stop offset=".712" stop-color="#EA1C24"/><stop offset=".79" stop-color="#E31B23"/><stop offset=".845" stop-color="#D81A22"/><stop offset=".89" stop-color="#CA191F"/><stop offset=".928" stop-color="#B8151B"/><stop offset=".963" stop-color="#A31014"/><stop offset=".993" stop-color="#8A070A"/><stop offset="1" stop-color="#840406"/></radialGradient><path fill="url(#cbg)" d="M507.738 319.577l8.227 16.15-12.816 12.812-16.153-8.23 2.842-17.895z"/><radialGradient id="cbh" cx="1517.951" cy="-8445.986" r="13.066" gradientTransform="matrix(-.688 .688 1.173 1.173 11413.471 9185.165)" gradientUnits="userSpaceOnUse"><stop offset="0" stop-color="#FFDE00"/><stop offset=".5" stop-color="#FDB913"/><stop offset=".77" stop-color="#FAB613"/><stop offset=".869" stop-color="#F2AC15"/><stop offset=".939" stop-color="#E89E17"/><stop offset=".996" stop-color="#D98B18"/><stop offset="1" stop-color="#D88917"/></radialGradient><path fill="url(#cbh)" d="M444.208 319.577l-8.23 16.15 12.816 12.812 16.146-8.23-2.833-17.895z"/><radialGradient id="cbi" cx="928.469" cy="-8513.155" r="13.069" gradientTransform="matrix(.688 -.688 -1.173 -1.173 -10134.546 -9052.464)" gradientUnits="userSpaceOnUse"><stop offset="0" stop-color="#9ACA3C"/><stop offset=".5" stop-color="#77B643"/><stop offset=".736" stop-color="#74B342"/><stop offset=".822" stop-color="#6FAE41"/><stop offset=".884" stop-color="#66A73F"/><stop offset=".933" stop-color="#599C3C"/><stop offset=".976" stop-color="#498F38"/><stop offset="1" stop-color="#3C8534"/></radialGradient><path fill="url(#cbi)" d="M507.738 297.51l8.227-16.145-12.816-12.814-16.153 8.23 2.842 17.9z"/><path fill="#fff" d="M438.478 295.525l-9.714-19.06 15.127-15.13 19.062 9.712-3.348 21.128z"/><path fill="#fff" d="M513.465 321.57l9.712 19.06-15.125 15.123-19.062-9.713 3.347-21.127z"/><path fill="#fff" d="M438.478 321.57l-9.714 19.06 15.127 15.123 19.062-9.713-3.348-21.127z"/><path fill="#fff" d="M513.465 295.525l9.712-19.06-15.125-15.13-19.062 9.712 3.347 21.128z"/><radialGradient id="cbj" cx="1022.622" cy="-8274.516" r="6.723" gradientTransform="matrix(-.688 -.688 -1.566 1.566 -11794.984 13949.924)" gradientUnits="userSpaceOnUse"><stop offset="0" stop-color="#0072BC"/><stop offset=".3" stop-color="#0061A8"/><stop offset=".66" stop-color="#0060A7"/><stop offset=".791" stop-color="#005DA2"/><stop offset=".885" stop-color="#00579A"/><stop offset=".96" stop-color="#114F90"/><stop offset="1" stop-color="#1F4888"/></radialGradient><path fill="url(#cbj)" d="M434.137 294.014l-10.835-21.27 16.877-16.874 21.266 10.84-3.733 23.57z"/><radialGradient id="cbk" cx="1403.436" cy="-8684.384" r="6.722" gradientTransform="matrix(.674 .701 1.596 -1.535 13406.027 -13989.405)" gradientUnits="userSpaceOnUse"><stop offset="0" stop-color="#B11117"/><stop offset=".3" stop-color="#9E0B0F"/><stop offset=".63" stop-color="#9C0A0E"/><stop offset=".75" stop-color="#96090C"/><stop offset=".836" stop-color="#8C0507"/><stop offset=".905" stop-color="#7F0001"/><stop offset=".964" stop-color="#6F0000"/><stop offset="1" stop-color="#620000"/></radialGradient><path fill="url(#cbk)" d="M517.806 323.078l10.836 21.264-16.876 16.875-21.268-10.835 3.732-23.573z"/><radialGradient id="cbl" cx="1490.96" cy="-8480.299" r="6.788" gradientTransform="matrix(-.688 .688 1.596 1.596 15018.797 12836.536)" gradientUnits="userSpaceOnUse"><stop offset="0" stop-color="#F68C1F"/><stop offset=".3" stop-color="#F47920"/><stop offset=".631" stop-color="#F17720"/><stop offset=".751" stop-color="#EA721F"/><stop offset=".837" stop-color="#E0691E"/><stop offset=".907" stop-color="#D35D1C"/><stop offset=".966" stop-color="#C14E19"/><stop offset="1" stop-color="#B44315"/></radialGradient><path fill="url(#cbl)" d="M434.137 323.078l-10.835 21.264 16.877 16.875 21.266-10.835-3.733-23.573z"/><radialGradient id="cbm" cx="928.814" cy="-8479.406" r="6.788" gradientTransform="matrix(.688 -.688 -1.596 -1.596 -13678.722 -12604.826)" gradientUnits="userSpaceOnUse"><stop offset="0" stop-color="#378546"/><stop offset=".3" stop-color="#007447"/><stop offset=".631" stop-color="#007346"/><stop offset=".751" stop-color="#006F43"/><stop offset=".837" stop-color="#006940"/><stop offset=".907" stop-color="#00623B"/><stop offset=".966" stop-color="#005735"/><stop offset="1" stop-color="#005030"/></radialGradient><path fill="url(#cbm)" d="M517.806 294.014l10.836-21.27-16.876-16.874-21.268 10.84 3.732 23.57z"/><path fill="#fff" d="M428.487 292.05l-12.306-24.136 19.163-19.16 24.14 12.3-4.236 26.757z"/><path fill="#fff" d="M523.457 325.038l12.302 24.14-19.16 19.16-24.14-12.302 4.24-26.762z"/><path fill="#fff" d="M428.487 325.038l-12.306 24.14 19.163 19.16 24.14-12.3-4.236-26.764z"/><path fill="#fff" d="M523.457 292.05l12.302-24.136-19.16-19.16-24.14 12.3 4.24 26.757z"/><radialGradient id="cbn" cx="1325.452" cy="-8263.093" r="16.39" gradientTransform="matrix(-.973 0 0 1.487 1749.142 12596.458)" gradientUnits="userSpaceOnUse"><stop offset="0" stop-color="#F68C1F"/><stop offset=".3" stop-color="#F47920"/><stop offset=".631" stop-color="#F17720"/><stop offset=".751" stop-color="#EA721F"/><stop offset=".837" stop-color="#E0691E"/><stop offset=".907" stop-color="#D35D1C"/><stop offset=".966" stop-color="#C14E19"/><stop offset="1" stop-color="#B44315"/></radialGradient><path fill="url(#cbn)" d="M453.915 312.852c0 .584-.475 1.063-1.058 1.063-.592 0-1.064-.48-1.064-1.063 0-.587.473-1.063 1.064-1.063.583 0 1.058.476 1.058 1.062zm-6.55-.097l3.195-3.217-.797 3.426h1.45l1.21-5.44-3.34-3.334-2.527 2.53 1.848 1.843.943-.948-.817-.82.554-.557 1.365 1.363-4.11 4.13 1.026 1.025zm3.177-7.976l1.02-1.027-1.02-1.022-1.025 1.023 1.025 1.026zm8.824 6.95l-4.107-4.13 1.366-1.362.553.556-.82.82.94.95 1.852-1.843-2.525-2.53-3.343 3.333 1.21 5.44h1.455l-.8-3.425 3.193 3.217 1.023-1.025zm-3.175-7.977l-1.02-1.022-1.02 1.023 1.02 1.026 1.02-1.027z"/><g><linearGradient id="cbo" gradientUnits="userSpaceOnUse" x1="1104.402" y1="-8815.631" x2="1133.522" y2="-8786.511" gradientTransform="matrix(1 0 0 -1 -645.664 -8495.326)"><stop offset="0" stop-color="#00BAF2"/><stop offset=".11" stop-color="#00AEEF"/><stop offset=".423" stop-color="#32327B"/><stop offset=".614" stop-color="#840406"/><stop offset=".883" stop-color="#ED1C24"/><stop offset="1" stop-color="#F15B22"/></linearGradient><path fill="url(#cbo)" d="M456.065 317.633l9.22-9.213-.002-.004 19.902-19.903 1.46 9.224-16.02 16.02h.004l-5.34 5.34z"/><linearGradient id="cbp" gradientUnits="userSpaceOnUse" x1="1109.747" y1="-8820.972" x2="1138.749" y2="-8791.97" gradientTransform="matrix(1 0 0 -1 -645.664 -8495.326)"><stop offset="0" stop-color="#00AEEF"/><stop offset=".387" stop-color="#32327B"/><stop offset=".693" stop-color="#840406"/><stop offset="1" stop-color="#D81921"/></linearGradient><path fill="url(#cbp)" d="M466.75 328.313l9.215-9.214h.003l19.907-19.905-9.227-1.458-16.018 16.02-5.34 5.34z"/><linearGradient id="cbq" gradientUnits="userSpaceOnUse" x1="1085.348" y1="-8810.9" x2="1114.468" y2="-8840.021" gradientTransform="matrix(1 0 0 -1 -626.611 -8514.379)"><stop offset="0" stop-color="#00BAF2"/><stop offset=".11" stop-color="#00AEEF"/><stop offset=".423" stop-color="#32327B"/><stop offset=".614" stop-color="#840406"/><stop offset=".853" stop-color="#ED1C24"/><stop offset="1" stop-color="#F15B22"/></linearGradient><path fill="url(#cbq)" d="M456.065 299.193l9.22 9.217-.002.003 19.902 19.9 1.46-9.217-16.02-16.023.004-.002-5.34-5.337z"/><linearGradient id="cbr" gradientUnits="userSpaceOnUse" x1="1109.747" y1="-8786.506" x2="1138.867" y2="-8815.626" gradientTransform="matrix(1 0 0 -1 -645.664 -8495.326)"><stop offset="0" stop-color="#00AEEF"/><stop offset=".387" stop-color="#32327B"/><stop offset=".686" stop-color="#840406"/><stop offset="1" stop-color="#D81921"/></linearGradient><path fill="url(#cbr)" d="M466.75 288.513l9.215 9.217.003-.002 19.907 19.9-9.227 1.462-16.018-16.02-5.34-5.337z"/><path fill="#A72C31" d="M470.626 313.75l5.34 5.34 5.34-5.34-5.34-5.34z"/><path opacity=".15" fill="#EE2424" enable-background="new" d="M465.285 308.41l5.34 5.34 5.34-5.34-5.34-5.34z"/><path fill="#20468A" d="M470.626 303.07l5.34 5.34 5.34-5.34-5.34-5.34z"/><path opacity=".3" fill="#2E3192" enable-background="new" d="M475.965 308.41l5.34 5.34 5.34-5.34-5.34-5.34z"/></g><path fill="#fff" d="M478.792 309.358l1.738 5.358-4.562-3.308-4.562 3.308 1.745-5.358-4.56-3.312h5.64l1.738-5.364 1.746 5.364h5.63z"/><radialGradient id="cbs" cx="1135.885" cy="-8672.555" r="11.128" gradientTransform="matrix(.973 0 0 -1.659 -610.535 -14079.057)" gradientUnits="userSpaceOnUse"><stop offset="0" stop-color="#9ACA3C"/><stop offset=".5" stop-color="#77B643"/><stop offset=".738" stop-color="#74B342"/><stop offset=".824" stop-color="#6FAE41"/><stop offset=".884" stop-color="#66A73F"/><stop offset=".934" stop-color="#599C3C"/><stop offset=".976" stop-color="#498F38"/><stop offset="1" stop-color="#3C8534"/></radialGradient><path fill="url(#cbs)" d="M498.823 305.723l-1.226-1.228 1.226-1.222 1.223 1.225-1.223 1.225zm4.12 1.68v-3.74h-1.373v2.363h-5.493v-2.364h-1.38v3.74l3.437-.002v1.376h-2.058l-.926 4.37 1.576-.005.582-2.996h3.023l.585 2.997h1.578l-.925-4.365h-2.058V307.4l3.432.002z"/></g></g><path fill="#fff" d="M418.547 333.565c-4.064 0-8.14-.856-12.115-2.54l1.114-2.114c2.62 1.074 5.097 1.577 8.005 1.636.147.003.295.005.44.005 4.465 0 7.587-1.43 9.54-4.37 1.08-1.623 1.706-4.34.742-6.18-.634-1.214-2.01-1.858-3.97-1.858h-.117c-.893.014-1.546.094-2.44.297l-2.003-2.1c.098-3.637.335-6.604.73-9.056.502.03 1.023.045 1.55.045 2.433 0 5.038-.32 7.543-.926l1.253 4.622c-2.455-.067-5.87-.375-7.88-.855l-.21-.05-.028.214c-.147 1.107-.23 2.412-.33 3.922l-.104 1.55.288-.11c1.193-.463 2.384-.694 3.634-.71h.162c2.325 0 4.12.668 5.33 1.985 1.392 1.507 2.052 3.482 1.908 5.715-.21 3.262-1.575 5.95-3.943 7.776-2.433 1.876-5.77 3.064-8.716 3.102l-.383.003zm-89.973-.08c-.155-2.336-.346-5.017-.585-7.382l-.048-.442-.294.334c-1.784 2.017-3.188 3.325-5.918 4.88-1.67.954-3.604 1.514-5.304 1.533l-.112.002c-4.368 0-7.638-3.208-7.954-7.802-.262-3.776.908-7.3 3.13-9.423 1.89-1.81 3.973-2.704 6.367-2.735h.09c2.027 0 3.853.96 5.017 2.63.94 1.348 1.11 3.97.422 6.298l-4.527-.903c1.163-1.26 1.88-2.913 1.69-3.96-.16-.898-1.187-1.602-2.34-1.602-.962.01-1.858.378-2.86 1.157-2.5 1.95-3.497 5.274-2.73 9.122.474 2.424 2.133 3.93 4.328 3.93.93-.014 1.903-.215 3.035-.62 3.137-1.122 5.41-2.764 7.6-5.49l.05-.064-.085-.864c-.114-1.18-.248-2.3-.373-3.365-.3-2.546-.562-4.744-.477-6.836.146-3.476 1.15-5.812 2.988-6.94.7-.433 1.612-.67 2.568-.67.892 0 1.744.21 2.402.587 1.992 1.155 2.342 3.386 2.402 4.043.53 5.81-2.658 9.59-6.696 14.38l-.686.815.01.086c.018.132.043.437.067.72l.09 1.03.307-.565c1.075-1.97 3.05-3.048 4.366-3.066h.095c1.908 0 3.108.775 4.288 2.764.415.7 1.127 1.802 1.55 2.36.2.27.854.975 1.44.975.688-.008 1.045-.935 1.282-1.74.328-1.124.548-2.298.73-3.9l2.943-.066c.12 3.06 1.324 5.822 2.626 5.97.07.008.143.012.216.012 1.318 0 2.88-1.318 4.283-3.613l.052-.088-.042-.097c-2.024-4.447-3.382-11.866-2.173-15.134.796-2.133 1.832-3.064 3.697-3.32.178-.025.354-.037.53-.037 1.24 0 2.515.596 3.41 1.593 1.417 1.578 2.234 4.703 1.99 7.6-.277 3.256-1.866 7.102-4.357 10.55l-.067.096.05.106c.983 2.043 2.84 2.47 4.224 2.47h.08c1.575-.02 3.455-.604 5.152-1.6l.204-.12-.156-.18c-1.89-2.146-2.856-6.014-2.158-8.616.525-1.934 2.308-3.904 4.698-3.937.348 0 .78.035 1.088.085 3.09.542 4.693 2.98 4.287 6.52-.323 2.782-2.545 5.84-3.664 6.856l-.193.177.224.137c.667.398 1.57.626 2.482.626 1.988-.026 3.08-.817 4.553-2.46l2.37 3.54c-1.78 1.475-3.463 2.132-5.44 2.134-.504 0-1.02-.042-1.578-.128-1.632-.25-3.012-.98-4.34-2.3l-.125-.12-.136.107c-2.6 2.09-3.99 2.832-6.633 2.832-.245 0-.5-.007-.77-.02-2.59-.113-4.343-1.367-5.682-4.062l-.14-.28-.19.248c-2.086 2.733-3.464 3.61-5.663 3.61-.092 0-.19 0-.288-.005-2.215-.075-3.713-2.325-4.02-3.514l-.383.017c-.276 1.528-1.783 2.992-3.296 3.192-.165.022-.333.033-.5.033-.655 0-1.316-.167-1.912-.484-1.517-.805-2.298-2.106-3.162-3.725-.62-1.156-1.123-1.627-1.748-1.627-.167 0-.347.034-.564.104-1.047.346-1.67 2.048-2.125 3.287-.46 1.258-.88 2.72-1.244 4.342l-1.74.004zm40.065-16.015c-.105 0-.215.007-.334.02-1.663.22-2.08 1.82-2.168 2.304-.28 1.622.93 4.896 2.003 6.067l.122.132.14-.104c1.74-1.28 2.683-3.572 2.52-6.14-.067-1.134-.79-2.277-2.243-2.277h-.04zm-13.138-8.355c-.75.008-1.332.85-1.572 1.68-.73 2.51.17 8.363 1.43 11.722l.14.37.208-.334c1.77-2.828 2.15-5.908 2.156-7.99.01-3.09-.86-4.43-1.38-4.95-.32-.322-.665-.497-.972-.497h-.01zm-23.7-1.442c-.374 0-.725.13-1.023.376-.88.745-1.377 1.884-1.61 3.695-.31 2.406-.283 3.624.2 8.703l.046.5.303-.4c2.904-3.848 4.285-8.313 3.603-11.652-.145-.71-.785-1.223-1.52-1.223zm63.792 24.09c-2.163 0-4.507-1.524-6.117-3.974l-.124-.19-.17.15c-1.388 1.223-2.66 1.818-4.257 1.988l-.246.018h-.125c-1.85 0-3.536-1.426-3.842-3.25-.323-1.933.797-4.4 3.168-5.01.377-.097.726-.145 1.07-.145 1.32 0 2.54.718 3.96 2.32l.165.187.14-.2c1.848-2.624 3.218-8.355 1.33-10.902-.638-.866-1.763-1.402-2.935-1.402-.527 0-1.038.11-1.477.32-1.205.577-1.962 2.117-2.05 4.145l-4.577-1.326c.743-2.146 2.282-4.828 5.425-5.843.71-.23 1.462-.345 2.245-.345 2.483 0 4.797 1.178 6.038 3.076 2.556 3.9 1.66 9.555-2.283 14.406l-.112.134.12.125c1.502 1.566 2.888 2.313 4.364 2.35l.225.003c1.518 0 2.555-.51 3.538-1.753l2.505.973c-.912 2.93-3.578 4.06-5.798 4.14l-.178.005zm-10.656-8.295c-.076 0-.15.004-.227.012-.844.09-1.762.74-1.772 1.634-.015.922.517 1.527 1.39 1.578.067.003.134.007.203.007 1.09 0 2.32-.496 3.138-1.262l.128-.12-.104-.14c-.827-1.104-1.804-1.71-2.754-1.71zm29.278 4.145c-1.698-.125-3.336-.693-4.787-1.195-.176-.063-.35-.123-.517-.177 2.184-4.358 3.248-10.998 3.932-16.32l-.357-.133c-.817 1.254-1.692 2.118-2.62 3.034-.203.2-.41.406-.617.616l-3.2-2.154c2.576-1.657 4.174-2.845 6.454-5.153.404.12 1.772.52 2.912.7-.856 5.755-1.664 14.524-1.2 20.783zm-12.195-2.255c-1.397 0-2.77-.616-3.766-1.694-.93-.995-1.448-2.31-1.46-3.698-.03-2.675 1.123-5.164 2.937-6.342.717-.467 1.56-.72 2.438-.73h.002c1.335 0 2.635.516 3.63 1.41 1.352 1.32 2.018 3.23 1.822 5.233-.205 2.14-1.344 4.042-3.042 5.087-.772.478-1.613.725-2.497.734h-.062zm-.31-8.973c-.588.01-1.207.323-1.655.833-.582.662-.92 1.612-.87 2.424.076 1.118 1.06 2.363 2.356 2.363.15 0 .3-.018.448-.05 1.34-.26 2.29-1.882 2.246-3.155-.044-1.265-1.232-2.415-2.494-2.415h-.032zm-56.454 3.558c-.087 0-.182-.007-.287-.016-1.033-.102-2.142-.865-2.264-2.13-.068-.666.158-1.312.636-1.818.452-.48 1.083-.793 1.734-.86.082-.01.16-.014.237-.016 1.192 0 2.476.806 2.61 2.15.13 1.317-.843 2.342-1.858 2.57-.353.08-.565.12-.81.12z"/><path fill="#fff" d="M324.828 300.307c-3.617 0-5.867-2.278-5.867-5.946 0-3.625 2.34-5.965 5.954-5.965 3.62 0 5.865 2.286 5.865 5.966 0 3.67-2.28 5.947-5.952 5.947zm0-9.823c-2.59 0-2.978 2.43-2.978 3.877 0 1.454.397 3.892 3.063 3.892 2.595 0 2.982-2.438 2.982-3.89 0-1.45-.397-3.878-3.067-3.878z"/><path fill="#fff" d="M416.478 300.294c-3.56 0-5.688-2.222-5.688-5.948 0-3.67 2.188-5.952 5.71-5.952 1.033 0 2.06.175 3.334.565.28.087.97.308 1.312.416l-.81 2.108c-.266-.083-.77-.24-.976-.3-.974-.283-1.743-.457-2.565-.457-2.015 0-3.036 1.216-3.036 3.617 0 2.39 1.024 3.602 3.05 3.602.78 0 1.595-.137 2.485-.42l.222-.07-.942 2.584-.068.015c-.756.162-1.367.238-1.92.238h-.11z"/><path fill="#fff" d="M314.01 300.294c-3.56 0-5.688-2.222-5.688-5.948 0-3.67 2.188-5.952 5.71-5.952.99 0 2.02.175 3.332.567l.9.265-.756 2.15-.59-.175c-1.065-.307-1.794-.47-2.597-.47-2.01 0-3.033 1.215-3.033 3.616 0 2.39 1.022 3.602 3.044 3.602.818 0 1.663-.145 2.588-.444l.59-.192.755 2.146-.898.272c-1.292.384-2.328.563-3.26.563h-.096z"/><path fill="#fff" d="M374.893 300.262c-.81 0-1.333-.333-1.558-.988l-1.762-5.248-.544.077v6.082h-2.503v-10.103c0-1.063.776-1.698 2.073-1.698 1.214 0 1.943.498 2.295 1.57l2.048 6.262 2.14-6.264c.254-.775.717-1.568 2.23-1.568 1.288 0 2.025.62 2.025 1.698v10.103h-2.576v-6.124l-.543-.088-1.826 5.3c-.18.66-.683.99-1.5.99z"/><path fill="#fff" d="M428.606 300.184l-.724-2.097h-4.276l-.394 1.12c-.196.586-.746.977-1.373.977h-1.855l3.872-10.586c.297-.84.942-1.248 1.977-1.248.978 0 1.668.438 1.94 1.232l3.747 10.6h-2.914v.002zm-4.413-4.17h3.117l-1.528-4.643-1.59 4.645z"/><path fill="#fff" d="M405.96 288.474h2.895v11.71h-2.895z"/><path fill="#fff" d="M401.28 300.184l-1.855-4.233h-2.445v4.234h-2.848v-10.26c0-.882.633-1.45 1.612-1.45h4.107c2.416 0 4.04 1.446 4.04 3.603 0 1.3-.583 2.38-1.64 3.04l-.225.136 2.28 4.932h-3.024zm-4.3-6.273l2.476-.01c1.03 0 1.67-.948 1.67-1.823 0-.935-.67-1.562-1.67-1.562h-2.476v3.396z"/><path fill="#fff" d="M385.216 300.184c-1.004 0-1.628-.557-1.628-1.453v-8.788c0-.907.624-1.468 1.628-1.468h7.04v.708c0 .763-.662 1.41-1.447 1.41h-4.37v2.608h5.06v2.043h-5.06v2.84h5.817v2.1h-7.04z"/><path fill="#fff" d="M364.528 300.184l-.726-2.097h-4.286l-.383 1.12c-.188.575-.754.977-1.374.977h-1.857l3.868-10.586c.304-.838.952-1.248 1.98-1.248.98 0 1.67.438 1.942 1.23l3.746 10.604h-2.91zm-4.417-4.17h3.122l-1.533-4.64-1.59 4.64z"/><path fill="#fff" d="M349.532 300.184l-.727-2.097h-4.27l-.4 1.12c-.178.58-.742.977-1.368.977h-1.858l3.867-10.586c.3-.84.95-1.248 1.986-1.248.98 0 1.667.438 1.938 1.23l3.752 10.604h-2.92zm-4.408-4.17h3.12l-1.533-4.64-1.586 4.64z"/><path fill="#fff" d="M332.47 300.184v-10.242c0-.907.63-1.468 1.636-1.468h3.592c2.427 0 3.993 1.484 3.993 3.78 0 2.31-1.624 3.8-4.143 3.8h-2.266v4.13h-2.81zm2.81-6.214h2.052c1.098 0 1.75-.64 1.75-1.714 0-1.168-.667-1.712-2.104-1.712h-1.697v3.426z"/><path fill="#fff" d="M387.64 287.026l1.286-1.737c.13-.194.244-.354.534-.354h1.468c.153 0 .35.026.406.152.052.122-.06.27-.164.37l-1.71 1.568h-1.82z"/></g></svg><svg width="240" height="153" viewBox="-20 -20 240 153" id="logo-goal" y="8655"><path fill="#fff" d="M92.004 60.678c-7.8 0-10.7 4.387-10.7 8.684v11.824c0 4.29 2.9 8.676 10.7 8.676 7.796 0 10.697-4.387 10.697-8.676V69.36c.002-4.298-2.9-8.682-10.696-8.682zm4.478 19.955c0 2.21-1.37 3.57-4.478 3.57-3.113 0-4.48-1.36-4.48-3.57v-10.72c0-2.21 1.367-3.567 4.48-3.567 3.11 0 4.478 1.357 4.478 3.568v10.72zm-19.096-7.31h-8.494c-.425.01-.767.358-.767.794v3.56c0 .438.346.79.775.79h3.03v2.166c0 2.205-1.368 3.566-4.48 3.566-3.11 0-4.48-1.362-4.48-3.567v-10.72c0-2.214 1.37-3.57 4.48-3.57 2.616 0 4.003.96 4.374 2.583.087.338.393.59.75.59H77.362c.43 0 .774-.352.774-.79v-.048c-.3-4.063-3.296-7.992-10.68-7.992-7.795 0-10.698 4.383-10.698 8.676v11.824c0 4.297 2.903 8.676 10.7 8.676 7.8 0 10.703-4.38 10.703-8.676V74.12c-.01-.438-.352-.788-.774-.798zM118.4 61.677c-.09-.324-.393-.568-.74-.568h-5.438c-.35 0-.65.244-.744.568l-7.513 26.75c-.02.064-.026.14-.026.22 0 .434.34.79.77.79h4.676c.35 0 .646-.244.744-.57l.952-3.52h7.724l.947 3.512c.085.328.393.58.745.58h4.675c.428 0 .77-.357.77-.79 0-.08-.008-.153-.023-.218l-7.52-26.754zm-5.957 18.636l2.498-9.246 2.507 9.246h-5.004zm30.037 3.467h-7.744V61.907c0-.01-.004-.01-.004-.01 0-.438-.342-.79-.772-.79h-4.68c-.35 0-.646.245-.74.57-.017.072-.033.146-.033.22v26.75c0 .432.35.79.772.79h13.2c.427 0 .77-.358.77-.79V84.57c.003-.44-.342-.79-.77-.79zm29.81-61.147H27.708c-1.587 0-2.88 1.33-2.88 2.953V89.43H38V37.41c0-.7.558-1.27 1.237-1.27h121.525c.68 0 1.233.57 1.233 1.27v52.02h13.175V25.586c0-1.623-1.3-2.953-2.88-2.953zM152.23 41c-2.8 0-5.07 2.336-5.07 5.195 0 2.87 2.27 5.2 5.07 5.2 2.795 0 5.068-2.33 5.068-5.2S155.025 41 152.23 41zm0 9.7c-2.422 0-4.396-2.02-4.396-4.51 0-2.48 1.975-4.5 4.396-4.5 2.42 0 4.39 2.02 4.39 4.5 0 2.492-1.97 4.51-4.39 4.51zm-3.214-5.376h.928v2.594h.685v-2.594h.932v-.59h-2.535v.59h-.01zm4.703 1.6h-.01l-.728-2.19h-.957v3.185h.636v-2.235h.01l.764 2.234h.525l.76-2.257h.01v2.256h.64v-3.185h-.958l-.693 2.19z"/></svg><svg width="240" height="214" viewBox="-19.5 748.5 240 214" enable-background="new 0.5 768.5 200 174" id="shopping-cart" y="8808"><path fill="#fff" d="M152.674 916.326c-6.957 0-13.043 6.087-13.043 13.044 0 6.956 6.088 13.043 13.044 13.043s13.043-6.087 13.043-13.043c0-6.957-6.087-13.044-13.043-13.044zM65.717 916.326c-6.957 0-13.043 6.087-13.043 13.044 0 6.956 6.087 13.043 13.043 13.043s13.044-6.087 13.044-13.043c0-6.957-6.086-13.044-13.043-13.044zM61.37 872.848h103.478l35.652-78.26H43.978V768.5H5.718L.5 777.196h23.478l23.48 130.434h118.26v-8.695H61.37z"/></svg><svg width="240" height="160" viewBox="-20 -20 240 160" id="sponsor-mastercard" y="9022"><defs><path id="cea" d="M0 0h200v119.67H0z"/></defs><clipPath id="ceb"><use xlink:href="#cea" overflow="visible"/></clipPath><path clip-path="url(#ceb)" fill="#E60004" d="M119.668 59.835c0 33.043-26.786 59.834-59.833 59.834C26.79 119.67 0 92.877 0 59.834 0 26.79 26.79 0 59.835 0c33.047 0 59.833 26.79 59.833 59.835"/><path clip-path="url(#ceb)" fill="#F5A300" d="M140.166 0c-15.464 0-29.55 5.867-40.17 15.487-2.16 1.96-4.178 4.08-6.038 6.334h12.085c1.652 2.01 3.178 4.123 4.565 6.335H89.396c-1.27 2.04-2.426 4.15-3.45 6.34h28.107c.96 2.053 1.807 4.166 2.534 6.334H83.412c-.69 2.063-1.274 4.175-1.74 6.333h36.652c.877 4.086 1.344 8.324 1.344 12.67 0 6.643-1.082 13.037-3.08 19.008H83.412c.728 2.173 1.573 4.284 2.534 6.337h28.107c-1.026 2.19-2.177 4.3-3.452 6.34H89.397c1.382 2.21 2.905 4.324 4.562 6.328h12.085c-1.86 2.258-3.877 4.375-6.045 6.342 10.62 9.617 24.704 15.482 40.168 15.482 33.04 0 59.832-26.792 59.832-59.837 0-33.04-26.79-59.834-59.832-59.834"/><path clip-path="url(#ceb)" fill="#F5A300" d="M192.024 93.187c0-1.066.863-1.934 1.935-1.934 1.067 0 1.93.867 1.93 1.934s-.862 1.936-1.93 1.936c-1.072 0-1.936-.87-1.936-1.936m1.935 1.473c.806 0 1.466-.66 1.466-1.473 0-.816-.66-1.467-1.467-1.467-.816 0-1.473.65-1.473 1.467 0 .813.657 1.473 1.472 1.473m-.266-.62h-.396V92.34h.72c.148 0 .303 0 .435.08.137.096.214.26.214.428 0 .193-.112.367-.295.44l.314.75h-.44l-.26-.675h-.29v.674zm0-.966h.22c.082 0 .168.004.243-.03.063-.046.1-.12.1-.2 0-.064-.042-.14-.098-.172-.07-.04-.18-.035-.254-.035h-.212v.437z"/><path clip-path="url(#ceb)" fill="#05266A" d="M45.86 66.384c-.68-.076-.98-.102-1.447-.102-3.683 0-5.543 1.264-5.543 3.758 0 1.54.907 2.512 2.325 2.512 2.65 0 4.553-2.515 4.666-6.168m4.727 10.998h-5.382l.123-2.557c-1.645 2.02-3.833 2.984-6.81 2.984-3.52 0-5.934-2.75-5.934-6.743 0-6.01 4.2-9.516 11.405-9.516.738 0 1.682.067 2.647.19.203-.814.255-1.16.255-1.6 0-1.633-1.133-2.244-4.164-2.244-3.182-.035-5.8.76-6.876 1.11l.9-5.552c3.238-.95 5.37-1.307 7.77-1.307 5.583 0 8.54 2.502 8.532 7.238.01 1.268-.202 2.834-.53 4.89-.56 3.576-1.772 11.244-1.937 13.107"/><path clip-path="url(#ceb)" fill="#05266A" d="M29.866 77.382H23.37l3.724-23.328-8.31 23.328h-4.426l-.548-23.2-3.912 23.2H3.82l5.076-30.35h9.343l.565 16.99 5.696-16.99h10.393zM148.19 66.384c-.68-.076-.98-.102-1.445-.102-3.684 0-5.544 1.264-5.544 3.758 0 1.54.907 2.512 2.328 2.512 2.644 0 4.552-2.515 4.662-6.168m4.73 10.998h-5.382l.123-2.557c-1.64 2.02-3.832 2.984-6.807 2.984-3.525 0-5.936-2.75-5.936-6.743 0-6.01 4.2-9.516 11.404-9.516.74 0 1.68.067 2.648.19.2-.814.25-1.16.25-1.6 0-1.633-1.13-2.244-4.162-2.244-3.175-.035-5.8.76-6.88 1.11.07-.41.91-5.552.91-5.552 3.23-.95 5.37-1.307 7.767-1.307 5.583 0 8.533 2.502 8.53 7.238.01 1.268-.2 2.834-.528 4.89-.56 3.576-1.774 11.244-1.935 13.107"/><path clip-path="url(#ceb)" fill="#05266A" d="M79.455 77.007c-1.777.56-3.162.8-4.665.8-3.323 0-5.135-1.905-5.135-5.42-.045-1.09.48-3.964.892-6.58.374-2.306 2.814-16.843 2.814-16.843h6.46l-.753 3.736h3.9l-.882 5.934H78.17c-.75 4.69-1.817 10.54-1.83 11.314 0 1.273.678 1.828 2.224 1.828.742 0 1.313-.074 1.75-.232l-.86 5.463zM99.252 76.81c-2.22.678-4.355 1.008-6.624 1-7.228-.01-10.996-3.78-10.996-11.012 0-8.436 4.79-14.646 11.302-14.646 5.32 0 8.72 3.477 8.72 8.93 0 1.81-.23 3.574-.796 6.068h-12.86c-.43 3.58 1.855 5.072 5.616 5.072 2.31 0 4.397-.477 6.714-1.55l-1.076 6.138zm-3.63-14.635c.04-.516.685-4.404-3.005-4.404-2.056 0-3.526 1.57-4.124 4.405h7.13zM54.482 60.505c0 3.12 1.514 5.275 4.945 6.887 2.63 1.238 3.04 1.605 3.04 2.73 0 1.536-1.163 2.233-3.73 2.233-1.94 0-3.74-.305-5.82-.98 0 0-.85 5.442-.894 5.702 1.478.322 2.793.62 6.76.732 6.853 0 10.02-2.61 10.02-8.25 0-3.394-1.325-5.384-4.582-6.88-2.72-1.25-3.033-1.53-3.033-2.682 0-1.334 1.08-2.016 3.18-2.016 1.273 0 3.015.137 4.667.37l.925-5.724c-1.685-.268-4.236-.48-5.72-.48-7.264.002-9.783 3.797-9.758 8.357M130.845 52.8c1.804 0 3.487.47 5.805 1.64l1.063-6.587c-.954-.375-4.3-2.57-7.14-2.57-4.344 0-8.022 2.16-10.604 5.717-3.773-1.25-5.324 1.277-7.226 3.79l-1.684.396c.126-.83.243-1.65.205-2.484h-5.968c-.813 7.645-2.26 15.38-3.39 23.02l-.295 1.662h6.5c1.086-7.045 1.677-11.56 2.04-14.613l2.447-1.358c.365-1.36 1.507-1.818 3.802-1.762-.3 1.607-.465 3.305-.465 5.057 0 8.078 4.365 13.105 11.355 13.105 1.8 0 3.347-.238 5.744-.887l1.14-6.918c-2.156 1.06-3.918 1.557-5.52 1.557-3.776 0-6.06-2.79-6.06-7.396.002-6.684 3.4-11.368 8.25-11.368M185.84 47.033l-1.442 8.768c-1.774-2.335-3.68-4.026-6.2-4.026-3.278 0-6.262 2.486-8.213 6.145-2.724-.564-5.532-1.526-5.532-1.526l-.003.025c.216-2.046.31-3.292.287-3.718h-5.965c-.814 7.643-2.26 15.38-3.388 23.02l-.298 1.662h6.5c.876-5.697 1.546-10.43 2.04-14.18 2.223-2.01 3.335-3.754 5.576-3.643-.994 2.407-1.575 5.173-1.575 8.01 0 6.17 3.12 10.24 7.843 10.24 2.384 0 4.208-.823 5.99-2.722l-.306 2.295h6.146l4.946-30.35h-6.406zm-8.123 24.648c-2.21 0-3.33-1.64-3.33-4.864 0-4.85 2.092-8.29 5.04-8.29 2.23 0 3.44 1.696 3.44 4.83 0 4.895-2.127 8.325-5.15 8.325"/><path clip-path="url(#ceb)" fill="#fff" d="M31.737 75.58H25.24l3.724-23.325-8.312 23.325h-4.425l-.547-23.194-3.912 23.194h-6.08l5.08-30.346h9.34l.26 18.79 6.304-18.79h10.09zM47.73 64.585c-.68-.078-.978-.102-1.447-.102-3.683 0-5.545 1.266-5.545 3.76 0 1.533.91 2.516 2.328 2.516 2.647 0 4.552-2.52 4.665-6.175M52.46 75.58h-5.385l.123-2.55c-1.64 2.017-3.83 2.98-6.81 2.98-3.52 0-5.93-2.753-5.93-6.745 0-6.008 4.196-9.512 11.405-9.512.735 0 1.68.068 2.65.193.197-.818.25-1.164.25-1.607 0-1.632-1.132-2.24-4.163-2.24-3.184-.04-5.8.755-6.878 1.106.068-.41.9-5.55.9-5.55 3.236-.95 5.373-1.306 7.773-1.306 5.58 0 8.535 2.504 8.528 7.234.015 1.27-.198 2.838-.525 4.893-.564 3.57-1.774 11.243-1.937 13.103M139.58 46.052l-1.062 6.584c-2.318-1.166-4-1.636-5.803-1.636-4.85 0-8.25 4.688-8.25 11.37 0 4.608 2.286 7.39 6.062 7.39 1.602 0 3.366-.492 5.517-1.555l-1.142 6.918c-2.393.65-3.938.89-5.74.89-6.99 0-11.348-5.032-11.348-13.103 0-10.852 6.02-18.434 14.627-18.434 2.84 0 6.188 1.2 7.14 1.576M150.06 64.585c-.676-.078-.98-.102-1.444-.102-3.682 0-5.545 1.266-5.545 3.76 0 1.533.908 2.516 2.327 2.516 2.646 0 4.556-2.52 4.664-6.175m4.73 10.995h-5.384l.123-2.55c-1.642 2.017-3.834 2.98-6.81 2.98-3.52 0-5.93-2.753-5.93-6.745 0-6.008 4.194-9.512 11.4-9.512.74 0 1.68.068 2.645.193.2-.818.256-1.164.256-1.607 0-1.632-1.13-2.24-4.163-2.24-3.177-.04-5.797.755-6.876 1.106l.9-5.55c3.238-.95 5.37-1.306 7.776-1.306 5.574 0 8.533 2.504 8.524 7.234.013 1.27-.198 2.838-.522 4.893-.562 3.57-1.774 11.243-1.94 13.103"/><path clip-path="url(#ceb)" fill="#fff" d="M81.323 75.205c-1.775.56-3.162.807-4.665.807-3.318 0-5.134-1.912-5.134-5.42-.043-1.096.48-3.96.893-6.582.375-2.31 2.817-16.846 2.817-16.846h6.455l-.755 3.738h3.313l-.88 5.93H80.04c-.75 4.697-1.82 10.543-1.835 11.318 0 1.27.684 1.83 2.225 1.83.742 0 1.313-.076 1.755-.234l-.864 5.46zM101.124 75.01c-2.22.68-4.36 1-6.625 1-7.23-.007-11-3.778-11-11.01 0-8.438 4.795-14.648 11.3-14.648 5.326 0 8.726 3.477 8.726 8.934 0 1.807-.236 3.576-.796 6.066H89.872c-.436 3.584 1.854 5.076 5.608 5.076 2.314 0 4.398-.48 6.72-1.56l-1.076 6.143zm-3.63-14.635c.037-.516.685-4.406-3.004-4.406-2.06 0-3.528 1.57-4.127 4.405h7.132zM56.353 58.705c0 3.125 1.514 5.273 4.945 6.89 2.63 1.24 3.04 1.605 3.04 2.724 0 1.542-1.163 2.233-3.732 2.233-1.938 0-3.738-.3-5.82-.97l-.89 5.694c1.474.324 2.79.62 6.757.734 6.854 0 10.022-2.612 10.022-8.247 0-3.396-1.327-5.383-4.58-6.877-2.724-1.254-3.036-1.53-3.036-2.686 0-1.332 1.077-2.02 3.177-2.02 1.272 0 3.02.142 4.666.374l.925-5.723c-1.682-.263-4.23-.48-5.714-.48-7.268 0-9.784 3.796-9.76 8.355M189.17 75.58h-6.146l.304-2.295c-1.782 1.906-3.606 2.727-5.99 2.727-4.72 0-7.84-4.07-7.84-10.244 0-8.21 4.84-15.13 10.567-15.13 2.52 0 4.427 1.03 6.204 3.366l1.437-8.768h6.407L189.17 75.58zm-9.585-5.702c3.027 0 5.15-3.428 5.15-8.313 0-3.14-1.21-4.844-3.44-4.844-2.947 0-5.038 3.442-5.038 8.296 0 3.232 1.12 4.862 3.328 4.862"/><path clip-path="url(#ceb)" fill="#fff" d="M160.64 50.902c-.812 7.64-2.258 15.377-3.388 23.02l-.296 1.657h6.498c2.324-15.09 2.882-18.04 6.53-17.67.58-3.09 1.658-5.794 2.463-7.155-2.72-.566-4.237.97-6.23 3.89.158-1.263.444-2.487.392-3.743h-5.97zM107.167 50.902c-.815 7.64-2.26 15.377-3.39 23.02l-.296 1.657h6.502c2.322-15.09 2.882-18.04 6.52-17.67.585-3.09 1.667-5.794 2.47-7.155-2.718-.566-4.238.97-6.228 3.89.16-1.263.445-2.487.39-3.743h-5.967zM192.02 73.65c0-1.07.868-1.934 1.935-1.934s1.93.863 1.93 1.934c0 1.063-.863 1.93-1.93 1.93s-1.934-.868-1.934-1.93m1.934 1.467c.812 0 1.468-.656 1.468-1.467s-.656-1.47-1.468-1.47c-.813 0-1.47.66-1.47 1.47s.658 1.467 1.47 1.467m-.262-.62h-.395V72.8h.72c.148 0 .298.004.43.088.142.088.217.25.217.422 0 .19-.11.37-.293.438l.312.748h-.438l-.26-.674h-.29v.674zm0-.962h.22c.077 0 .17.006.24-.035.066-.04.1-.12.1-.193 0-.066-.037-.137-.095-.176-.068-.038-.18-.026-.253-.026h-.212v.43z"/></svg><svg width="240" height="92.305" viewBox="-20 -20 240 92.305" id="sponsor-santander" y="9182"><path fill="#FB0019" d="M0 0h200v52.305H0z"/><path fill="#fff" d="M36.902 10.286c0 4.31 7.33 9.092 7.33 14.008 0 0 0 .478-.204.985 6.85 1.424 11.702 4.783 11.702 8.72 0 5.29-8.65 9.63-19.37 9.666-.068.036-.135 0-.203 0-10.616 0-19.234-4.207-19.234-9.465 0-3.933 5.26-7.12 11.602-8.818 0 2.172 7.225 9.057 7.396 11.84 0 0 .033.236.033.51 0 .135 0 .27-.032.405 1.56-.814 1.56-3.36 1.56-3.36 0-6.035-7.023-8.72-7.023-14.653 0-2.305 1.086-4.002 2.07-4.477v1.662c0 4.308 7.6 9.125 7.6 13.06v1.287c1.762-.68 1.762-3.9 1.762-3.9 0-5.426-7.055-8.446-7.055-14.654 0-2.305 1.086-4.002 2.067-4.477v1.66zM73.967 36.584c4.342 0 6.708-2.26 6.708-5.68 0-2.687-2.315-4.267-4.183-5.21l-2.053-1.028c-1.475-.735-2.736-1.55-2.736-3.368 0-1.394 1.184-2.765 3.184-2.765 2.683 0 3.997 1.87 4.418 4.24h.71v-4.447s-2.21-.896-4.893-.896c-3.92 0-5.972 2.368-5.972 5.13 0 2.21 1.58 3.792 3.527 4.762l2.052 1.028c1.42.71 3.55 1.683 3.55 3.815 0 2-1.605 3.26-3.894 3.26-2.29 0-4.29-1.997-4.657-4.63h-.71v4.974s2.077.814 4.947.814m12.18-.103c1.266 0 2.765-.973 3.632-1.712.104.607.368 1.32.92 1.713l3.684-1.366v-.79l-.632.21c-.29.105-.42.105-.632.105-.71 0-.788-.554-.788-1.423V27.77c0-.865-.58-3.5-3.895-3.5-.656 0-1.58.186-2.658.844-1.106.658-1.92 1.29-2.053 2.235 0 .08-.025.183-.025.288 0 .556.263 1.108.475 1.475l1.733-.79s-.288-.522-.288-.974c0-.263.027-.605.185-.842.394-.632 1.184-1.028 1.975-1.028 1.156 0 1.92 1.028 1.92 2.687v1.103l-3.554 1.292c-2.023.733-2.946 1.71-2.946 2.976 0 1.76 1.158 2.943 2.945 2.943m1.08-5.314l2.475-1.052v3.892c-.658.528-1.58.895-2.237.895-1.368 0-1.764-1.102-1.764-1.786 0-1.263.975-1.71 1.527-1.948m7.973 5.05h6.21v-.63l-.866-.16c-.53-.104-.95-.498-.95-1.023V27.14c.577-.526 1.55-1.238 2.71-1.238 2.105 0 2.314 1.767 2.314 2.554v5.947c0 .525-.42.92-.946 1.024l-.868.16v.63h6.262v-.63l-.896-.16c-.525-.075-.92-.5-.92-1.024V28.43c0-2.236-1.288-4.16-3.972-4.16-1.21 0-2.578.66-3.738 1.947V24.27h-.553L95.2 25.9v.79l.34-.128c.213-.08.422-.108.606-.108.525 0 .815.318.815.923v7.025c0 .525-.367.92-.895 1.024l-.865.16v.63zm22.946-10.34l.47-1.128h-4.157v-3.345h-.526c-1.13 2.71-4.026 3.816-4.026 3.816v.656h1.923v6.29c0 2.842 1.24 4.183 3.525 4.183.237 0 .712-.08.712-.08l2.368-1.502-.288-.628c-.66.366-1.37.5-1.818.5-1.104 0-1.87-.79-1.87-2.236v-6.527h3.686zm4.438 10.605c1.266 0 2.762-.973 3.633-1.712.103.607.367 1.32.92 1.713l3.684-1.366v-.79l-.63.21c-.29.105-.42.105-.63.105-.71 0-.792-.554-.792-1.423V27.77c0-.865-.58-3.5-3.894-3.5-.658 0-1.578.186-2.66.844-1.103.658-1.92 1.29-2.05 2.235 0 .08-.025.183-.025.288 0 .556.26 1.108.47 1.475l1.737-.79s-.288-.522-.288-.974c0-.263.025-.605.185-.842.39-.632 1.182-1.028 1.972-1.028 1.16 0 1.92 1.028 1.92 2.687v1.103l-3.552 1.292c-2.025.733-2.947 1.71-2.947 2.976 0 1.76 1.158 2.943 2.946 2.943m1.08-5.314l2.472-1.052v3.892c-.658.528-1.577.895-2.235.895-1.366 0-1.763-1.102-1.763-1.786 0-1.263.973-1.71 1.526-1.948m7.972 5.05h6.21v-.63l-.867-.16c-.526-.104-.947-.498-.947-1.023V27.14c.578-.526 1.552-1.238 2.712-1.238 2.104 0 2.313 1.767 2.313 2.554v5.947c0 .525-.42.92-.946 1.024l-.87.16v.63h6.263v-.63l-.893-.16c-.525-.075-.923-.5-.923-1.024V28.43c0-2.236-1.292-4.16-3.972-4.16-1.214 0-2.578.66-3.738 1.947V24.27h-.553l-3.79 1.632v.79l.344-.13c.213-.08.423-.107.604-.107.53 0 .817.318.817.923v7.025c0 .525-.37.92-.897 1.024l-.868.16v.63zm20.55.265c1.764 0 3-1 3.684-1.736.132.607.42 1.344 1 1.737l3.684-1.366v-.79l-.634.21c-.288.105-.42.105-.628.105-.712 0-.868-.58-.868-1.58V15.72h-.554l-4.104 1.735v.79l.526-.184c.237-.077.5-.13.736-.13.42 0 .763.186.763.816v6.024c-.63-.262-1.498-.502-2.71-.502-3.632 0-6.34 2.87-6.34 6.37 0 4.002 2.975 5.843 5.445 5.843m1.183-11.104c1.106 0 2.08.525 2.422 1.396v6.84c-.21.42-1.078 1.237-2.473 1.237-2.316 0-3.79-1.79-3.79-4.736 0-3.524 1.95-4.738 3.84-4.738m11.026 4.053h8.158v-.343c0-2.87-2.156-4.817-4.92-4.817-3.366 0-5.975 2.792-5.975 6.214 0 2.918 1.818 5.998 5.923 5.998 1.975 0 3.58-.817 4.63-1.79v-1.053c-.92.708-2.08 1.183-3.34 1.183-2.5 0-4.502-1.76-4.476-5.26v-.134zm5.394-1.08h-5.313c.315-1.997 1.418-2.974 2.894-2.974 1.313 0 2.42.95 2.42 2.92v.055zm4.315 7.867h6.686v-.63l-1.265-.16c-.5-.075-1.028-.5-1.028-1.024V27.93c.74-1.526 1.79-1.76 2.633-1.76.79 0 1.292.365 1.424 1.102h.526V24.48s-.268-.262-1.316-.262c-1.29 0-2.422.764-3.368 2.605V24.27h-.553l-3.737 1.632v.79l.346-.13c.206-.08.417-.107.603-.107.523 0 .814.318.814.923v7.025c0 .525-.394.92-.893 1.024l-.87.16v.63z"/></svg><svg width="240" height="81" viewBox="-20 -20 240 81" id="we-are-wm" y="9275"><path fill="#95B8D2" d="M71.2 37.075h1.814c.327 0 .496.008.613.135.06.06.143.176.143.327 0 .177-.092.302-.15.345-.143.118-.312.134-.605.134H71.2v1.69c0 .353.06 1.008-.604 1.008-.63 0-.605-.58-.605-1.01v-4.082c0-.555 0-.655.178-.84.177-.185.328-.185.84-.185h2.395c.336 0 .512 0 .638.126.077.075.145.193.145.344 0 .126-.05.252-.144.345-.125.125-.3.125-.637.125H71.2v1.538zM75.97 38.192c0 .53.01 1.554 1.336 1.554 1.285 0 1.302-1.024 1.302-1.528v-2.714c0-.438-.008-.655.15-.815.085-.085.236-.195.447-.195.16 0 .327.067.453.186.16.168.16.396.16.824v2.62c0 .724 0 2.59-2.428 2.59-.865 0-1.78-.12-2.31-.984-.262-.428-.32-1.118-.32-1.605v-2.62c0-.44 0-.656.16-.816.083-.085.234-.195.444-.195.168 0 .336.067.454.186.168.168.15.396.15.824v2.688zM84.243 39.67c.36 0 .545 0 .672.136.076.066.16.16.16.327 0 .135-.06.252-.15.345-.136.134-.32.134-.682.134h-2.445c-.554 0-.656 0-.84-.175-.185-.178-.185-.336-.185-.84v-4.092c0-.438 0-.655.16-.815.09-.092.244-.194.445-.194.167 0 .328.067.454.186.168.15.15.395.15.823v4.167h2.26zM88.98 39.67c.36 0 .545 0 .67.136.077.066.16.16.16.327 0 .135-.058.252-.15.345-.135.134-.32.134-.682.134h-2.445c-.554 0-.655 0-.84-.175-.185-.178-.185-.336-.185-.84v-4.092c0-.438 0-.655.16-.815.092-.092.243-.194.445-.194.168 0 .328.067.453.186.168.15.152.395.152.823v4.167h2.26zM93.648 39.704c0 .21.017.605-.15.807-.085.094-.194.203-.464.203-.226 0-.444-.135-.52-.294-.076-.186-.076-.32-.076-.716V35.62c0-.512 0-.654.185-.856.15-.168.41-.168.68-.168h1.47c.438 0 .96.05 1.235.16.94.37 1.01 1.293 1.01 1.612 0 .698-.253 1.37-1.026 1.706-.327.143-.798.193-1.218.193h-1.126v1.437zm0-4.167v1.79h.832c.362 0 1.303.025 1.303-.9 0-.335-.15-.604-.404-.754-.21-.126-.64-.135-.9-.135h-.832zM101.14 39.67c.362 0 .545 0 .672.136.076.066.16.16.16.327 0 .135-.06.252-.152.345-.135.134-.32.134-.68.134h-2.445c-.554 0-.655 0-.84-.175-.185-.178-.185-.336-.185-.84v-4.092c0-.438 0-.655.16-.815.092-.092.244-.194.445-.194.168 0 .328.067.454.186.167.15.15.395.15.823v4.167h2.26zM103.56 39.192l-.287.756c-.21.563-.302.765-.68.765-.353 0-.58-.294-.58-.538 0-.185.05-.336.168-.63l1.547-3.907c.228-.58.31-.832.512-.966.133-.093.31-.177.528-.177.27 0 .58.102.782.463.042.075.228.537.277.672l1.58 3.88c.11.278.176.455.176.648 0 .235-.218.554-.596.554-.386 0-.48-.228-.697-.78l-.294-.74h-2.437zm2.116-.94l-.916-2.472-.89 2.47h1.806zM108.018 35.79c-.36-.556-.36-.664-.36-.773 0-.303.268-.52.57-.52.32 0 .43.167.756.705l1.126 1.824 1.134-1.824c.067-.11.26-.412.327-.496.145-.16.27-.21.447-.21.302 0 .538.235.538.513 0 .166-.076.318-.354.747l-1.503 2.31v1.638c0 .412 0 .673-.167.832-.118.11-.27.177-.438.177-.16 0-.328-.067-.437-.177-.168-.168-.168-.42-.168-.832v-1.638l-1.47-2.278zM116.04 38.847c-.672 0-1.21-.537-1.21-1.202 0-.67.538-1.218 1.21-1.218.663 0 1.21.537 1.21 1.218 0 .673-.556 1.202-1.21 1.202zM122.58 39.704c0 .412 0 .673-.175.832-.084.075-.235.177-.428.177-.16 0-.328-.067-.446-.177-.166-.16-.158-.42-.158-.832v-4.167h-1.11c-.343 0-.562.017-.688-.125-.075-.076-.15-.177-.15-.345 0-.125.05-.243.143-.344.134-.144.353-.126.697-.126h3.42c.344 0 .562-.018.688.126.076.075.15.185.15.344 0 .135-.057.252-.14.345-.136.143-.354.125-.7.125h-1.1v4.167zM130.528 37.595c0 1.353-.623 3.118-2.932 3.118-2.31 0-2.95-1.748-2.95-3.083 0-1.73.908-3.135 2.916-3.135 2.445 0 2.966 1.882 2.966 3.1zm-4.646.01c0 .46.068.932.294 1.335.286.512.823.806 1.402.806.387 0 1.715-.185 1.715-2.142 0-1.176-.52-2.142-1.707-2.142-.46 0-1.704.2-1.704 2.142zM132.44 39.704c0 .42.034 1.01-.62 1.01-.59 0-.59-.54-.59-1.01V35.62c0-.53 0-.646.177-.84.167-.176.37-.184.84-.184h1.707c.454 0 .966.016 1.386.26.462.27.79.755.79 1.403 0 1.3-1.134 1.553-1.53 1.637.497.277.85.74 1.136 1.218.177.294.503.865.503 1.11 0 .227-.22.487-.597.487-.387 0-.555-.294-.85-.773l-.495-.816c-.605-.99-.9-1.084-1.43-1.084h-.427v1.664zm0-4.167v1.638h1.093c.454 0 1.36-.008 1.36-.847 0-.345-.192-.572-.393-.682-.168-.092-.413-.11-.925-.11h-1.134zM140.857 35.2c0-.066 0-.37.144-.52.085-.083.22-.185.42-.185.15 0 .312.067.42.177.152.15.152.37.152.78v4.026c0 .394.076 1.235-.722 1.235-.378 0-.505-.144-.9-.748l-2.285-3.47v3.27c0 .41.008.62-.143.77-.076.076-.22.178-.42.178-.15 0-.31-.06-.42-.177-.143-.16-.152-.37-.152-.772v-4.067c0-.63 0-.814.243-1.024.076-.067.228-.177.48-.177.243 0 .387.093.51.244.062.067.23.327.338.487l2.336 3.546V35.2zM144.2 37.007h2.327c.328 0 .496.01.612.126.067.067.152.176.152.336 0 .124-.06.25-.144.334-.125.125-.302.144-.622.144h-2.328v1.722h2.63c.293 0 .412-.017.555.05.134.06.243.227.243.412 0 .16-.084.303-.184.378-.136.1-.328.1-.615.1h-2.822c-.546 0-.647 0-.84-.174-.177-.168-.177-.336-.177-.84v-3.974c0-.555 0-.655.177-.84.176-.185.327-.185.84-.185h2.73c.345 0 .513 0 .64.126.058.06.142.175.142.344 0 .126-.05.252-.143.345-.126.125-.302.125-.638.125h-2.538v1.47zM153.86 37.595c0 1.353-.623 3.118-2.933 3.118-2.31 0-2.95-1.748-2.95-3.083 0-1.73.908-3.135 2.916-3.135 2.444 0 2.966 1.882 2.966 3.1zm-4.647.01c0 .46.067.932.294 1.335.286.512.823.806 1.403.806.387 0 1.713-.185 1.713-2.142 0-1.176-.52-2.142-1.706-2.142-.46 0-1.704.2-1.704 2.142zM156.755 40.713c-2.084 0-2.402-1.43-2.402-1.773 0-.244.192-.53.553-.53.337 0 .43.23.614.657.1.243.353.756 1.193.756.58 0 1.227-.27 1.227-.882 0-.654-.688-.814-1.437-.982-.883-.21-1.176-.353-1.445-.563-.302-.243-.588-.63-.588-1.218 0-1.008.84-1.68 2.26-1.68 1.798 0 2.15 1.15 2.15 1.47 0 .226-.192.563-.554.563-.328 0-.437-.22-.597-.546-.102-.203-.304-.623-1.077-.623-.512 0-1.05.23-1.05.707 0 .537.672.688 1.303.84 1 .235 1.353.403 1.672.655.462.36.555.94.555 1.244 0 1.05-.814 1.907-2.378 1.907zM162.82 38.847c-.673 0-1.212-.537-1.212-1.202 0-.67.54-1.218 1.21-1.218.664 0 1.21.537 1.21 1.218 0 .673-.555 1.202-1.21 1.202zM169.36 39.704c0 .412 0 .673-.175.832-.084.075-.236.177-.428.177-.16 0-.327-.067-.445-.177-.17-.16-.16-.42-.16-.832v-4.167h-1.11c-.343 0-.56.017-.687-.125-.076-.076-.15-.177-.15-.345 0-.125.05-.243.142-.344.135-.144.353-.126.697-.126h3.42c.344 0 .562-.018.688.126.076.075.152.185.152.344 0 .135-.06.252-.144.345-.135.143-.353.125-.696.125h-1.102v4.167zM172.905 39.704c0 .42.033 1.01-.623 1.01-.588 0-.588-.54-.588-1.01V35.62c0-.53 0-.646.177-.84.17-.176.37-.184.84-.184h1.706c.454 0 .966.016 1.387.26.46.27.79.755.79 1.403 0 1.3-1.134 1.553-1.53 1.637.497.277.85.74 1.136 1.218.174.294.502.865.502 1.11 0 .227-.217.487-.597.487-.385 0-.554-.294-.848-.773l-.497-.816c-.604-.99-.898-1.084-1.427-1.084h-.428v1.664zm0-4.167v1.638h1.09c.455 0 1.362-.008 1.362-.847 0-.345-.193-.572-.395-.682-.168-.092-.412-.11-.924-.11h-1.133zM178.524 39.192l-.287.756c-.21.563-.3.765-.68.765-.353 0-.58-.294-.58-.538 0-.185.05-.336.167-.63l1.546-3.907c.228-.58.312-.832.513-.966.134-.093.31-.177.53-.177.268 0 .58.102.78.463.042.075.228.537.277.672l1.58 3.88c.11.278.176.455.176.648 0 .235-.22.554-.596.554-.387 0-.48-.228-.698-.78l-.293-.74h-2.436zm2.116-.94l-.916-2.472-.89 2.47h1.806zM184.285 37.075h1.814c.328 0 .495.008.612.135.06.06.142.176.142.327 0 .177-.09.302-.15.345-.142.118-.31.134-.605.134h-1.815v1.69c0 .353.06 1.008-.605 1.008-.63 0-.605-.58-.605-1.01v-4.082c0-.555 0-.655.177-.84.177-.185.327-.185.84-.185h2.394c.336 0 .512 0 .64.126.074.075.14.193.14.344 0 .126-.05.252-.14.345-.128.125-.304.125-.64.125h-2.2v1.538zM189.02 37.075h1.816c.327 0 .495.008.613.135.058.06.142.176.142.327 0 .177-.092.302-.15.345-.144.118-.312.134-.605.134h-1.816v1.69c0 .353.06 1.008-.603 1.008-.63 0-.604-.58-.604-1.01v-4.082c0-.555 0-.655.177-.84.175-.185.328-.185.84-.185h2.394c.337 0 .513 0 .64.126.074.075.142.193.142.344 0 .126-.05.252-.143.345-.125.125-.302.125-.64.125h-2.202v1.538zM193.834 39.704c0 .438.008.655-.15.823-.093.093-.245.186-.446.186-.16 0-.327-.067-.453-.186-.17-.15-.16-.395-.16-.823v-4.2c0-.438 0-.655.16-.815.092-.093.243-.195.445-.195.16 0 .328.067.446.186.167.168.16.396.16.824v4.2zM199.067 40.275c-.302.21-.74.438-1.545.438-1.11 0-1.732-.377-2.143-.865-.53-.622-.75-1.42-.75-2.235 0-1.917 1.202-3.118 2.892-3.118 1.73 0 2.453 1.252 2.453 1.833 0 .192-.15.52-.537.52-.31 0-.403-.168-.656-.64-.252-.46-.74-.747-1.27-.747-.898 0-1.646.647-1.646 2.202 0 .858.21 1.353.522 1.664.36.36.798.42 1.09.42.86 0 1.252-.554 1.42-1.024.093-.252.203-.537.564-.537.252 0 .538.185.538.528 0 .454-.328 1.135-.933 1.562zM6.233 15.646c.41-1.406.606-2.078 1.104-2.467.346-.238.8-.456 1.342-.456.475 0 .973.15 1.36.455.5.39.716 1.06 1.127 2.444l1.32 4.567 1.428-5.215c.368-1.364.627-2.25 1.883-2.25.888 0 1.624.734 1.624 1.493 0 .476-.087.735-.433 1.71l-1.97 5.67c-.498 1.405-.693 2.055-1.212 2.423-.347.24-.78.434-1.3.434-.497 0-.994-.173-1.384-.476-.52-.39-.736-1.06-1.147-2.468L8.7 17.205l-1.255 4.263c-.433 1.45-.628 2.1-1.125 2.49-.325.26-.8.497-1.385.497-.455 0-.93-.086-1.32-.433-.477-.41-.758-1.018-1.234-2.424l-1.947-5.67C.108 14.998 0 14.694 0 14.24c0-.714.65-1.516 1.624-1.516 1.255 0 1.493.91 1.86 2.25l1.408 5.217 1.34-4.544zM21.855 19.585c.043 2.055 1.667 2.49 2.38 2.49 1.19 0 2.1-.715 2.49-.997.455-.324.887-.692 1.472-.692.8 0 1.407.67 1.407 1.3 0 1.276-1.818 2.77-5.216 2.77-4.718 0-6.254-2.966-6.254-5.843 0-2.425 1.277-5.888 5.93-5.888 4.264 0 5.562 3.203 5.562 4.76 0 .457-.15 1.495-1.19 1.906-.433.174-1.3.196-1.774.196h-4.807zm4.242-1.947c.043-1.45-.865-2.467-2.164-2.467-1.817 0-2.013 1.927-2.078 2.468h4.242zM36.525 24.455c-2.488 0-3.636-1.624-3.636-3.203 0-2.554 2.358-3.05 3.678-3.31.498-.11 2.727-.5 3.16-.608.325-.085.562-.15 1.06-.324-.042-1.493-.085-2.9-2.553-2.9-1.3 0-2.684.39-3.16 1.558-.195.498-.347.91-.93.91-.455 0-.845-.348-.845-.802 0-.65.736-3.052 4.804-3.052 4.285 0 4.566 2.035 4.566 4.63 0 .565-.065 3.03-.065 3.53 0 1.038.174 1.514.304 1.86.02.108.215.627.215.973 0 .37-.412.736-.91.736-.735 0-1.04-1.04-1.255-1.84-.583.565-1.99 1.842-4.435 1.842zm3.03-5.714c-1.34.305-2.402.457-3.29.694-1.254.347-1.45 1.256-1.45 1.688 0 .778.585 1.86 2.144 1.86 1.19 0 2.726-.497 3.375-1.623.433-.737.476-1.754.476-3.008-.28.108-.67.26-1.255.39zM44.964 13.916c0-.52 0-1.19.822-1.19.8 0 .8.67.8 1.19v.865c.758-1.168 1.342-2.055 2.727-2.055.93 0 2.23.476 2.23 1.277 0 .542-.477.866-.758.866-.477 0-.736-.325-1.558-.325-2.013 0-2.38 2.186-2.38 4.76v4.07c0 .95-.65 1.08-.93 1.08-.26 0-.5-.085-.672-.26-.28-.237-.28-.627-.28-1.275v-9.002zM53.424 18.958c.064 3.008 1.73 4.112 3.505 4.112 1.86 0 2.51-1.018 3.16-2.014.128-.194.345-.563.8-.563.41 0 .714.347.714.714 0 .347-.195.714-.37.995-.497.823-1.6 2.25-4.393 2.25-3.677 0-5.344-2.575-5.344-5.885 0-3.247 1.688-5.844 5.302-5.844 4.437 0 5.02 4.047 5.02 5.02 0 1.213-.907 1.213-1.666 1.213h-6.728zm6.47-1.298c-.043-.628-.085-1.3-.562-2.122-.476-.822-1.363-1.428-2.597-1.428-1.516 0-2.36.93-2.77 1.688-.368.67-.455 1.363-.52 1.86h6.45zM119.376 15.646c.412-1.406.605-2.078 1.104-2.467.346-.238.8-.456 1.342-.456.476 0 .973.15 1.362.455.5.39.715 1.06 1.126 2.444l1.32 4.567 1.428-5.215c.368-1.364.628-2.25 1.882-2.25.888 0 1.624.734 1.624 1.493 0 .476-.086.735-.433 1.71l-1.968 5.67c-.498 1.405-.693 2.055-1.212 2.423-.346.24-.78.434-1.3.434-.496 0-.994-.173-1.385-.476-.52-.39-.735-1.06-1.146-2.468l-1.278-4.306-1.255 4.263c-.433 1.45-.627 2.1-1.125 2.49-.325.26-.8.497-1.385.497-.454 0-.93-.086-1.32-.433-.476-.41-.757-1.017-1.234-2.423l-1.947-5.67c-.324-.93-.434-1.234-.434-1.688 0-.715.65-1.517 1.624-1.517 1.254 0 1.493.91 1.86 2.25l1.407 5.217 1.343-4.544zM135 19.585c.042 2.055 1.666 2.49 2.38 2.49 1.19 0 2.1-.715 2.49-.997.453-.324.885-.692 1.47-.692.8 0 1.408.67 1.408 1.3 0 1.276-1.818 2.77-5.216 2.77-4.718 0-6.255-2.966-6.255-5.843 0-2.425 1.278-5.888 5.93-5.888 4.264 0 5.562 3.203 5.562 4.76 0 .457-.153 1.495-1.192 1.906-.432.174-1.298.196-1.774.196H135zm4.24-1.947c.045-1.45-.864-2.467-2.164-2.467-1.818 0-2.013 1.927-2.078 2.468h4.243zM159.408 22.896c0 .67 0 1.018-.238 1.278-.173.15-.39.28-.69.28-.954 0-.954-.865-.954-1.58V17.12c0-.996 0-2.75-2.013-2.75-.822 0-1.796.39-2.25 1.17-.477.778-.5 1.492-.5 2.142v5.215c0 .67 0 1.018-.237 1.278-.152.13-.39.28-.692.28-.26 0-.52-.107-.715-.28-.24-.26-.24-.607-.24-1.278v-5.994c0-.714 0-2.532-1.99-2.532-1.018 0-1.97.542-2.315 1.3-.455.887-.476 1.73-.476 2.705v4.522c0 .67 0 1.018-.24 1.278-.15.13-.39.28-.692.28-.26 0-.52-.107-.714-.28-.237-.26-.237-.607-.237-1.278v-8.634c0-.714 0-1.537.844-1.537.434 0 .715.325.78.563.065.237.065.346.065 1.254.648-.996 1.796-1.818 3.397-1.818.54 0 1.775.087 2.597.953.346.367.475.712.583 1.015.39-.605 1.364-1.97 3.463-1.97 1.017 0 2.445.37 3.05 1.58.413.846.413 1.646.413 2.187v6.404zM164.49 24.455c-2.488 0-3.635-1.624-3.635-3.203 0-2.554 2.358-3.05 3.68-3.31.497-.11 2.727-.5 3.16-.608.324-.085.562-.15 1.06-.324-.043-1.493-.087-2.9-2.554-2.9-1.297 0-2.682.39-3.16 1.558-.194.498-.345.91-.93.91-.454 0-.843-.348-.843-.802 0-.65.735-3.052 4.804-3.052 4.286 0 4.567 2.035 4.567 4.63 0 .565-.065 3.03-.065 3.53 0 1.038.173 1.514.303 1.86.02.108.217.627.217.973 0 .37-.412.736-.91.736-.734 0-1.038-1.04-1.254-1.84-.585.565-1.99 1.842-4.437 1.842zm3.03-5.714c-1.34.305-2.4.457-3.29.694-1.254.347-1.45 1.256-1.45 1.688 0 .778.585 1.86 2.144 1.86 1.19 0 2.727-.497 3.376-1.623.432-.737.476-1.754.476-3.008-.28.108-.67.26-1.255.39zM173.21 11.08c0-.822 0-1.06.15-1.342.11-.194.413-.433.78-.433.952 0 .952.867.952 1.667v2.013h.996c.454 0 1.168 0 1.168.67 0 .5-.52.694-1.104.694h-1.06v6.664c0 1.125.064 1.905 1.125 1.905.173 0 .952-.13 1.104-.13.368 0 .65.236.65.67 0 .735-.953.93-2.122.93-2.64 0-2.64-1.84-2.64-3.225V14.35h-.714c-.844 0-.844-.65-.844-.694 0-.67.78-.67 1.017-.67h.542V11.08zM183.273 24.455c-2.944 0-4.09-1.45-4.63-2.402-.39-.692-.803-1.774-.803-3.44 0-2.598 1.104-5.888 5.346-5.888 2.553 0 3.657 1.147 4.307 2.143.194.28.39.67.39 1.04 0 .475-.412.82-.845.82-.238 0-.476-.02-.91-.756-.28-.476-1.016-1.774-2.92-1.774-2.1 0-3.485 1.667-3.485 4.33 0 2.79 1.32 4.456 3.44 4.456 1.19 0 2.294-.563 2.88-1.6.086-.153.475-.867.562-.997.152-.173.325-.346.628-.346.41 0 .865.325.865.866 0 .628-1.19 3.55-4.825 3.55zM199.132 22.896c0 .715 0 .953-.193 1.212-.153.195-.478.346-.78.346-.326 0-.672-.173-.823-.52-.086-.216-.086-.453-.086-1.04v-5.453c0-.626-.043-1.6-.346-2.12-.41-.692-1.212-1.06-1.99-1.06-1.062 0-2.165.584-2.663 1.537-.302.562-.52 1.04-.52 3.376v3.744c0 .627 0 .995-.26 1.255-.128.107-.367.28-.713.28-.91 0-.91-.843-.91-1.558V9.998c0-.736 0-1.558.91-1.558.974 0 .974.8.974 1.558v4.588c.78-.974 1.733-1.86 3.528-1.86 1.364 0 2.36.498 3.096 1.363.777.886.777 2.315.777 2.9v5.906zM81.772 16.818l2.556 7.863h8.267l2.555-7.862-6.69-4.86zM88.64 0C77.744 0 68.875 8.87 68.875 19.77c0 1.946.283 3.854 1.088 6.226 1.185-.18 2.508-.344 3.954-.488-.503-1.27-.716-2.075-.864-2.892l4.46-4.46c.4-.4.4-1.052 0-1.455l-3.353-3.353c1.75-3.935 5.054-7.026 9.127-8.495l4.342 4.026c.43.4 1.1.375 1.5-.055l3.957-4.264c4.49 1.313 8.16 4.565 10.04 8.787L99.77 16.7c-.4.403-.4 1.055 0 1.455l4.46 4.46c-.158.887-.4 1.764-.815 2.847 1.444.135 2.778.292 3.98.466.712-2.166 1.014-4.137 1.014-6.16C108.41 8.87 99.544 0 88.64 0z"/></svg></svg>